<svg xmlns="http://www.w3.org/2000/svg" viewBox="0 0 200 170" width="200" height="170">
<defs>
  <marker id="arrow" viewBox="0 0 10 10" refX="9" refY="5" markerWidth="7" markerHeight="7" orient="auto-start-reverse">
    <path d="M0,0 L10,5 L0,10 z" fill="#1d1d1f"/>
  </marker>
</defs>
<line x1="30" y1="145" x2="100" y2="25" stroke="#1d1d1f" stroke-width="1.4" fill="none"/>
<line x1="170" y1="145" x2="100" y2="25" stroke="#1d1d1f" stroke-width="1.4" fill="none"/>
<circle cx="100" cy="25" r="2.5" fill="#1d1d1f"/>
<text x="100" y="17" font-family="Times, Georgia, serif" font-style="italic" font-size="14" text-anchor="middle">C''</text>
<line x1="30" y1="145" x2="100" y2="60" stroke="#1d1d1f" stroke-width="1.4" fill="none"/>
<line x1="170" y1="145" x2="100" y2="60" stroke="#1d1d1f" stroke-width="1.4" fill="none"/>
<circle cx="100" cy="60" r="2.5" fill="#1d1d1f"/>
<text x="100" y="52" font-family="Times, Georgia, serif" font-style="italic" font-size="14" text-anchor="middle">C</text>
<line x1="30" y1="145" x2="100" y2="95" stroke="#1d1d1f" stroke-width="1.4" fill="none"/>
<line x1="170" y1="145" x2="100" y2="95" stroke="#1d1d1f" stroke-width="1.4" fill="none"/>
<circle cx="100" cy="95" r="2.5" fill="#1d1d1f"/>
<text x="112" y="99" font-family="Times, Georgia, serif" font-style="italic" font-size="14" text-anchor="start">C'</text>
<line x1="30" y1="145" x2="170" y2="145" stroke="#1d1d1f" stroke-width="1.4" fill="none"/>
<circle cx="30" cy="145" r="2.5" fill="#1d1d1f"/>
<text x="30" y="161" font-family="Times, Georgia, serif" font-style="italic" font-size="14" text-anchor="middle">A</text>
<circle cx="170" cy="145" r="2.5" fill="#1d1d1f"/>
<text x="170" y="161" font-family="Times, Georgia, serif" font-style="italic" font-size="14" text-anchor="middle">B</text>
</svg>