<svg xmlns="http://www.w3.org/2000/svg" viewBox="0 0 260 130" width="260" height="130">
<defs>
  <marker id="arrow" viewBox="0 0 10 10" refX="9" refY="5" markerWidth="7" markerHeight="7" orient="auto-start-reverse">
    <path d="M0,0 L10,5 L0,10 z" fill="#1d1d1f"/>
  </marker>
</defs>
<line x1="30" y1="100" x2="90" y2="30" stroke="#1d1d1f" stroke-width="1.4" fill="none"/>
<line x1="90" y1="30" x2="175" y2="30" stroke="#1d1d1f" stroke-width="1.4" fill="none"/>
<line x1="175" y1="30" x2="235" y2="100" stroke="#1d1d1f" stroke-width="1.4" fill="none"/>
<line x1="235" y1="100" x2="30" y2="100" stroke="#1d1d1f" stroke-width="1.4" fill="none"/>
<line x1="90" y1="30" x2="90" y2="100" stroke="#1d1d1f" stroke-width="1.0" stroke-dasharray="3,3" fill="none"/>
<line x1="175" y1="30" x2="175" y2="100" stroke="#1d1d1f" stroke-width="1.0" stroke-dasharray="3,3" fill="none"/>
<path d="M 96.00 100.00 L 96.00 94.00 L 90.00 94.00" stroke="#1d1d1f" stroke-width="1.4" fill="none"/>
<path d="M 169.00 100.00 L 169.00 94.00 L 175.00 94.00" stroke="#1d1d1f" stroke-width="1.4" fill="none"/>
<circle cx="30" cy="100" r="2.5" fill="#1d1d1f"/>
<text x="20" y="118" font-family="Times, Georgia, serif" font-style="italic" font-size="14" text-anchor="end">A</text>
<circle cx="90" cy="30" r="2.5" fill="#1d1d1f"/>
<text x="80" y="22" font-family="Times, Georgia, serif" font-style="italic" font-size="14" text-anchor="end">B</text>
<circle cx="175" cy="30" r="2.5" fill="#1d1d1f"/>
<text x="185" y="22" font-family="Times, Georgia, serif" font-style="italic" font-size="14" text-anchor="start">C</text>
<circle cx="235" cy="100" r="2.5" fill="#1d1d1f"/>
<text x="245" y="118" font-family="Times, Georgia, serif" font-style="italic" font-size="14" text-anchor="start">D</text>
<circle cx="90" cy="100" r="2.5" fill="#1d1d1f"/>
<text x="90" y="116" font-family="Times, Georgia, serif" font-style="italic" font-size="14" text-anchor="middle">X</text>
<circle cx="175" cy="100" r="2.5" fill="#1d1d1f"/>
<text x="175" y="116" font-family="Times, Georgia, serif" font-style="italic" font-size="14" text-anchor="middle">Y</text>
</svg>