<svg xmlns="http://www.w3.org/2000/svg" viewBox="0 0 280 200" width="280" height="200">
<defs>
  <marker id="arrow" viewBox="0 0 10 10" refX="9" refY="5" markerWidth="7" markerHeight="7" orient="auto-start-reverse">
    <path d="M0,0 L10,5 L0,10 z" fill="#1d1d1f"/>
  </marker>
</defs>
<line x1="110" y1="50" x2="150" y2="70" stroke="#1d1d1f" stroke-width="1.4" fill="none"/>
<line x1="150" y1="70" x2="130" y2="110" stroke="#1d1d1f" stroke-width="1.4" fill="none"/>
<line x1="130" y1="110" x2="90" y2="95" stroke="#1d1d1f" stroke-width="1.4" fill="none"/>
<line x1="90" y1="95" x2="110" y2="50" stroke="#1d1d1f" stroke-width="1.4" fill="none"/>
<line x1="159.0" y1="8.0" x2="227.0" y2="42.0" stroke="#1d1d1f" stroke-width="1.4" fill="none"/>
<line x1="227.0" y1="42.0" x2="193.0" y2="110.0" stroke="#1d1d1f" stroke-width="1.4" fill="none"/>
<line x1="193.0" y1="110.0" x2="125.0" y2="84.5" stroke="#1d1d1f" stroke-width="1.4" fill="none"/>
<line x1="125.0" y1="84.5" x2="159.0" y2="8.0" stroke="#1d1d1f" stroke-width="1.4" fill="none"/>
<line x1="40" y1="110" x2="159.0" y2="8.0" stroke="#1d1d1f" stroke-width="1.2" stroke-dasharray="4,3" fill="none"/>
<line x1="40" y1="110" x2="227.0" y2="42.0" stroke="#1d1d1f" stroke-width="1.2" stroke-dasharray="4,3" fill="none"/>
<line x1="40" y1="110" x2="193.0" y2="110.0" stroke="#1d1d1f" stroke-width="1.2" stroke-dasharray="4,3" fill="none"/>
<line x1="40" y1="110" x2="125.0" y2="84.5" stroke="#1d1d1f" stroke-width="1.2" stroke-dasharray="4,3" fill="none"/>
<circle cx="40" cy="110" r="2.5" fill="#1d1d1f"/>
<text x="28" y="114" font-family="Times, Georgia, serif" font-style="italic" font-size="14" text-anchor="end">O</text>
<circle cx="110" cy="50" r="2.5" fill="#1d1d1f"/>
<text x="110" y="42" font-family="Times, Georgia, serif" font-style="italic" font-size="14" text-anchor="middle">A</text>
<circle cx="150" cy="70" r="2.5" fill="#1d1d1f"/>
<text x="160" y="62" font-family="Times, Georgia, serif" font-style="italic" font-size="14" text-anchor="start">B</text>
<circle cx="130" cy="110" r="2.5" fill="#1d1d1f"/>
<text x="142" y="114" font-family="Times, Georgia, serif" font-style="italic" font-size="14" text-anchor="start">C</text>
<circle cx="90" cy="95" r="2.5" fill="#1d1d1f"/>
<text x="80" y="113" font-family="Times, Georgia, serif" font-style="italic" font-size="14" text-anchor="end">D</text>
<circle cx="159.0" cy="8.0" r="2.5" fill="#1d1d1f"/>
<text x="159.0" y="0.0" font-family="Times, Georgia, serif" font-style="italic" font-size="14" text-anchor="middle">A'</text>
<circle cx="227.0" cy="42.0" r="2.5" fill="#1d1d1f"/>
<text x="237.0" y="34.0" font-family="Times, Georgia, serif" font-style="italic" font-size="14" text-anchor="start">B'</text>
<circle cx="193.0" cy="110.0" r="2.5" fill="#1d1d1f"/>
<text x="205.0" y="114.0" font-family="Times, Georgia, serif" font-style="italic" font-size="14" text-anchor="start">C'</text>
<circle cx="125.0" cy="84.5" r="2.5" fill="#1d1d1f"/>
<text x="113.0" y="88.5" font-family="Times, Georgia, serif" font-style="italic" font-size="14" text-anchor="end">D'</text>
</svg>