<svg xmlns="http://www.w3.org/2000/svg" viewBox="0 0 240 160" width="240" height="160">
<defs>
  <marker id="arrow" viewBox="0 0 10 10" refX="9" refY="5" markerWidth="7" markerHeight="7" orient="auto-start-reverse">
    <path d="M0,0 L10,5 L0,10 z" fill="#1d1d1f"/>
  </marker>
</defs>
<line x1="30" y1="30" x2="210" y2="30" stroke="#1d1d1f" stroke-width="1.4" fill="none"/>
<line x1="210" y1="30" x2="210" y2="130" stroke="#1d1d1f" stroke-width="1.4" fill="none"/>
<line x1="210" y1="130" x2="30" y2="130" stroke="#1d1d1f" stroke-width="1.4" fill="none"/>
<line x1="30" y1="130" x2="30" y2="30" stroke="#1d1d1f" stroke-width="1.4" fill="none"/>
<line x1="165" y1="92" x2="30" y2="130" stroke="#1d1d1f" stroke-width="1.4" fill="none"/>
<line x1="165" y1="92" x2="30" y2="30" stroke="#1d1d1f" stroke-width="1.4" fill="none"/>
<line x1="165" y1="92" x2="210" y2="30" stroke="#1d1d1f" stroke-width="1.4" fill="none"/>
<circle cx="30" cy="30" r="2.5" fill="#1d1d1f"/>
<text x="20" y="22" font-family="Times, Georgia, serif" font-style="italic" font-size="14" text-anchor="end">B</text>
<circle cx="210" cy="30" r="2.5" fill="#1d1d1f"/>
<text x="220" y="22" font-family="Times, Georgia, serif" font-style="italic" font-size="14" text-anchor="start">C</text>
<circle cx="210" cy="130" r="2.5" fill="#1d1d1f"/>
<text x="220" y="148" font-family="Times, Georgia, serif" font-style="italic" font-size="14" text-anchor="start">D</text>
<circle cx="30" cy="130" r="2.5" fill="#1d1d1f"/>
<text x="20" y="148" font-family="Times, Georgia, serif" font-style="italic" font-size="14" text-anchor="end">A</text>
<circle cx="165" cy="92" r="2.5" fill="#1d1d1f"/>
<text x="177" y="96" font-family="Times, Georgia, serif" font-style="italic" font-size="14" text-anchor="start">P</text>
</svg>