<svg xmlns="http://www.w3.org/2000/svg" viewBox="0 0 280 130" width="280" height="130">
<defs>
  <marker id="arrow" viewBox="0 0 10 10" refX="9" refY="5" markerWidth="7" markerHeight="7" orient="auto-start-reverse">
    <path d="M0,0 L10,5 L0,10 z" fill="#1d1d1f"/>
  </marker>
</defs>
<line x1="50" y1="20" x2="90" y2="50" stroke="#1d1d1f" stroke-width="1.4" fill="none"/>
<line x1="90" y1="50" x2="75" y2="105" stroke="#1d1d1f" stroke-width="1.4" fill="none"/>
<line x1="75" y1="105" x2="15" y2="75" stroke="#1d1d1f" stroke-width="1.4" fill="none"/>
<line x1="15" y1="75" x2="50" y2="20" stroke="#1d1d1f" stroke-width="1.4" fill="none"/>
<line x1="50" y1="20" x2="75" y2="105" stroke="#1d1d1f" stroke-width="1.4" fill="none"/>
<line x1="170" y1="25" x2="215" y2="65" stroke="#1d1d1f" stroke-width="1.4" fill="none"/>
<line x1="215" y1="65" x2="180" y2="110" stroke="#1d1d1f" stroke-width="1.4" fill="none"/>
<line x1="180" y1="110" x2="260" y2="70" stroke="#1d1d1f" stroke-width="1.4" fill="none"/>
<line x1="260" y1="70" x2="170" y2="25" stroke="#1d1d1f" stroke-width="1.4" fill="none"/>
<circle cx="50" cy="20" r="2.5" fill="#1d1d1f"/>
<text x="40" y="12" font-family="Times, Georgia, serif" font-style="italic" font-size="14" text-anchor="end">A</text>
<circle cx="90" cy="50" r="2.5" fill="#1d1d1f"/>
<text x="102" y="54" font-family="Times, Georgia, serif" font-style="italic" font-size="14" text-anchor="start">B</text>
<circle cx="75" cy="105" r="2.5" fill="#1d1d1f"/>
<text x="75" y="121" font-family="Times, Georgia, serif" font-style="italic" font-size="14" text-anchor="middle">C</text>
<circle cx="15" cy="75" r="2.5" fill="#1d1d1f"/>
<text x="3" y="79" font-family="Times, Georgia, serif" font-style="italic" font-size="14" text-anchor="end">D</text>
<circle cx="170" cy="25" r="2.5" fill="#1d1d1f"/>
<text x="160" y="17" font-family="Times, Georgia, serif" font-style="italic" font-size="14" text-anchor="end">E</text>
<circle cx="215" cy="65" r="2.5" fill="#1d1d1f"/>
<text x="203" y="69" font-family="Times, Georgia, serif" font-style="italic" font-size="14" text-anchor="end">F</text>
<circle cx="180" cy="110" r="2.5" fill="#1d1d1f"/>
<text x="180" y="126" font-family="Times, Georgia, serif" font-style="italic" font-size="14" text-anchor="middle">G</text>
<circle cx="260" cy="70" r="2.5" fill="#1d1d1f"/>
<text x="272" y="74" font-family="Times, Georgia, serif" font-style="italic" font-size="14" text-anchor="start">H</text>
<text x="50" y="125" font-family="Times, Georgia, serif" font-style="italic" font-size="10" text-anchor="middle">convex</text>
<text x="200" y="125" font-family="Times, Georgia, serif" font-style="italic" font-size="10" text-anchor="middle">concave</text>
</svg>