<svg xmlns="http://www.w3.org/2000/svg" viewBox="0 0 240 200" width="240" height="200">
<defs>
  <marker id="arrow" viewBox="0 0 10 10" refX="9" refY="5" markerWidth="7" markerHeight="7" orient="auto-start-reverse">
    <path d="M0,0 L10,5 L0,10 z" fill="#1d1d1f"/>
  </marker>
</defs>
<line x1="133.84615384615384" y1="107" x2="133.84615384615384" y2="113" stroke="#1d1d1f" stroke-width="1.4" fill="none"/>
<line x1="106.15384615384616" y1="107" x2="106.15384615384616" y2="113" stroke="#1d1d1f" stroke-width="1.4" fill="none"/>
<line x1="117" y1="123.84615384615384" x2="123" y2="123.84615384615384" stroke="#1d1d1f" stroke-width="1.4" fill="none"/>
<line x1="117" y1="96.15384615384616" x2="123" y2="96.15384615384616" stroke="#1d1d1f" stroke-width="1.4" fill="none"/>
<line x1="147.69230769230768" y1="107" x2="147.69230769230768" y2="113" stroke="#1d1d1f" stroke-width="1.4" fill="none"/>
<line x1="92.3076923076923" y1="107" x2="92.3076923076923" y2="113" stroke="#1d1d1f" stroke-width="1.4" fill="none"/>
<line x1="117" y1="137.69230769230768" x2="123" y2="137.69230769230768" stroke="#1d1d1f" stroke-width="1.4" fill="none"/>
<line x1="117" y1="82.3076923076923" x2="123" y2="82.3076923076923" stroke="#1d1d1f" stroke-width="1.4" fill="none"/>
<line x1="161.53846153846155" y1="107" x2="161.53846153846155" y2="113" stroke="#1d1d1f" stroke-width="1.4" fill="none"/>
<line x1="78.46153846153845" y1="107" x2="78.46153846153845" y2="113" stroke="#1d1d1f" stroke-width="1.4" fill="none"/>
<line x1="117" y1="151.53846153846155" x2="123" y2="151.53846153846155" stroke="#1d1d1f" stroke-width="1.4" fill="none"/>
<line x1="117" y1="68.46153846153845" x2="123" y2="68.46153846153845" stroke="#1d1d1f" stroke-width="1.4" fill="none"/>
<line x1="175.3846153846154" y1="107" x2="175.3846153846154" y2="113" stroke="#1d1d1f" stroke-width="1.4" fill="none"/>
<line x1="64.61538461538461" y1="107" x2="64.61538461538461" y2="113" stroke="#1d1d1f" stroke-width="1.4" fill="none"/>
<line x1="117" y1="165.3846153846154" x2="123" y2="165.3846153846154" stroke="#1d1d1f" stroke-width="1.4" fill="none"/>
<line x1="117" y1="54.61538461538461" x2="123" y2="54.61538461538461" stroke="#1d1d1f" stroke-width="1.4" fill="none"/>
<line x1="189.23076923076923" y1="107" x2="189.23076923076923" y2="113" stroke="#1d1d1f" stroke-width="1.4" fill="none"/>
<line x1="50.769230769230774" y1="107" x2="50.769230769230774" y2="113" stroke="#1d1d1f" stroke-width="1.4" fill="none"/>
<line x1="117" y1="179.23076923076923" x2="123" y2="179.23076923076923" stroke="#1d1d1f" stroke-width="1.4" fill="none"/>
<line x1="117" y1="40.769230769230774" x2="123" y2="40.769230769230774" stroke="#1d1d1f" stroke-width="1.4" fill="none"/>
<line x1="203.0769230769231" y1="107" x2="203.0769230769231" y2="113" stroke="#1d1d1f" stroke-width="1.4" fill="none"/>
<line x1="36.92307692307692" y1="107" x2="36.92307692307692" y2="113" stroke="#1d1d1f" stroke-width="1.4" fill="none"/>
<line x1="117" y1="193.0769230769231" x2="123" y2="193.0769230769231" stroke="#1d1d1f" stroke-width="1.4" fill="none"/>
<line x1="117" y1="26.92307692307692" x2="123" y2="26.92307692307692" stroke="#1d1d1f" stroke-width="1.4" fill="none"/>
<line x1="25" y1="110" x2="215" y2="110" stroke="#1d1d1f" stroke-width="1.4" fill="none" marker-start="url(#arrow)" marker-end="url(#arrow)"/>
<line x1="120" y1="15" x2="120" y2="205" stroke="#1d1d1f" stroke-width="1.4" fill="none" marker-start="url(#arrow)" marker-end="url(#arrow)"/>
<text x="224" y="115" font-family="Times, Georgia, serif" font-style="italic" font-size="14" text-anchor="middle">x</text>
<text x="120" y="8" font-family="Times, Georgia, serif" font-style="italic" font-size="14" text-anchor="middle">y</text>
<line x1="70" y1="145" x2="170" y2="80" stroke="#1d1d1f" stroke-width="1.4" fill="none"/>
<line x1="70" y1="145" x2="170" y2="145" stroke="#1d1d1f" stroke-width="1.4" fill="none"/>
<line x1="170" y1="145" x2="170" y2="80" stroke="#1d1d1f" stroke-width="1.4" fill="none"/>
<path d="M 163.00 145.00 L 163.00 138.00 L 170.00 138.00" stroke="#1d1d1f" stroke-width="1.4" fill="none"/>
<text x="120.0" y="159" font-family="Times, Georgia, serif" font-style="italic" font-size="10" text-anchor="middle">x₂ - x₁</text>
<text x="178" y="112.5" font-family="Times, Georgia, serif" font-style="italic" font-size="10" text-anchor="start">y₂ - y₁</text>
<text x="114.0" y="108.5" font-family="Times, Georgia, serif" font-style="italic" font-size="12" text-anchor="middle">d</text>
<circle cx="70" cy="145" r="2.5" fill="#1d1d1f"/>
<text x="60" y="163" font-family="Times, Georgia, serif" font-style="normal" font-size="14" text-anchor="end">(x₁,y₁)</text>
<circle cx="170" cy="80" r="2.5" fill="#1d1d1f"/>
<text x="180" y="72" font-family="Times, Georgia, serif" font-style="normal" font-size="14" text-anchor="start">(x₂,y₂)</text>
</svg>