<svg xmlns="http://www.w3.org/2000/svg" viewBox="0 0 230 140" width="230" height="140">
<defs>
  <marker id="arrow" viewBox="0 0 10 10" refX="9" refY="5" markerWidth="7" markerHeight="7" orient="auto-start-reverse">
    <path d="M0,0 L10,5 L0,10 z" fill="#1d1d1f"/>
  </marker>
</defs>
<line x1="60" y1="25" x2="25" y2="125" stroke="#1d1d1f" stroke-width="1.4" fill="none"/>
<line x1="25" y1="125" x2="210" y2="125" stroke="#1d1d1f" stroke-width="1.4" fill="none"/>
<line x1="60" y1="25" x2="210" y2="125" stroke="#1d1d1f" stroke-width="1.4" fill="none"/>
<line x1="210" y1="125" x2="47.75" y2="60.0" stroke="#1d1d1f" stroke-width="1.4" fill="none"/>
<line x1="25" y1="125" x2="150.0" y2="85.0" stroke="#1d1d1f" stroke-width="1.4" fill="none"/>
<path d="M 50.06 53.39 L 56.56 56.00 L 54.25 62.60" stroke="#1d1d1f" stroke-width="1.4" fill="none"/>
<circle cx="60" cy="25" r="2.5" fill="#1d1d1f"/>
<text x="60" y="17" font-family="Times, Georgia, serif" font-style="italic" font-size="14" text-anchor="middle">A</text>
<circle cx="47.75" cy="60.0" r="2.5" fill="#1d1d1f"/>
<text x="57.75" y="52.0" font-family="Times, Georgia, serif" font-style="italic" font-size="14" text-anchor="start">B</text>
<circle cx="150.0" cy="85.0" r="2.5" fill="#1d1d1f"/>
<text x="160.0" y="77.0" font-family="Times, Georgia, serif" font-style="italic" font-size="14" text-anchor="start">E</text>
<text x="127.84810126582279" y="108.0886075949367" font-family="Times, Georgia, serif" font-style="italic" font-size="14" text-anchor="middle">F</text>
<circle cx="25" cy="125" r="2.5" fill="#1d1d1f"/>
<text x="15" y="143" font-family="Times, Georgia, serif" font-style="italic" font-size="14" text-anchor="end">C</text>
<circle cx="210" cy="125" r="2.5" fill="#1d1d1f"/>
<text x="220" y="143" font-family="Times, Georgia, serif" font-style="italic" font-size="14" text-anchor="start">D</text>
</svg>