<svg xmlns="http://www.w3.org/2000/svg" viewBox="0 0 240 200" width="240" height="200">
<defs>
  <marker id="arrow" viewBox="0 0 10 10" refX="9" refY="5" markerWidth="7" markerHeight="7" orient="auto-start-reverse">
    <path d="M0,0 L10,5 L0,10 z" fill="#1d1d1f"/>
  </marker>
</defs>
<line x1="157.5" y1="35.0480947161671" x2="195.0" y2="100.0" stroke="#1d1d1f" stroke-width="1.4" fill="none"/>
<line x1="195.0" y1="100.0" x2="157.5" y2="164.9519052838329" stroke="#1d1d1f" stroke-width="1.4" fill="none"/>
<line x1="157.5" y1="164.9519052838329" x2="82.50000000000001" y2="164.9519052838329" stroke="#1d1d1f" stroke-width="1.4" fill="none"/>
<line x1="82.50000000000001" y1="164.9519052838329" x2="45.0" y2="100.00000000000001" stroke="#1d1d1f" stroke-width="1.4" fill="none"/>
<line x1="45.0" y1="100.00000000000001" x2="82.49999999999997" y2="35.04809471616713" stroke="#1d1d1f" stroke-width="1.4" fill="none"/>
<line x1="82.49999999999997" y1="35.04809471616713" x2="157.5" y2="35.0480947161671" stroke="#1d1d1f" stroke-width="1.4" fill="none"/>
<line x1="195.0" y1="100.0" x2="82.49999999999997" y2="35.04809471616713" stroke="#1d1d1f" stroke-width="1.4" fill="none"/>
<line x1="82.49999999999997" y1="35.04809471616713" x2="82.50000000000001" y2="164.9519052838329" stroke="#1d1d1f" stroke-width="1.4" fill="none"/>
<line x1="82.50000000000001" y1="164.9519052838329" x2="195.0" y2="100.0" stroke="#1d1d1f" stroke-width="1.4" fill="none"/>
<circle cx="157.5" cy="35.0480947161671" r="2.5" fill="#1d1d1f"/>
<text x="147.5" y="27.0480947161671" font-family="Times, Georgia, serif" font-style="italic" font-size="14" text-anchor="end">B</text>
<circle cx="195.0" cy="100.0" r="2.5" fill="#1d1d1f"/>
<text x="205.0" y="92.0" font-family="Times, Georgia, serif" font-style="italic" font-size="14" text-anchor="start">A</text>
<circle cx="157.5" cy="164.9519052838329" r="2.5" fill="#1d1d1f"/>
<text x="169.5" y="168.9519052838329" font-family="Times, Georgia, serif" font-style="italic" font-size="14" text-anchor="start">F</text>
<circle cx="82.50000000000001" cy="164.9519052838329" r="2.5" fill="#1d1d1f"/>
<text x="92.50000000000001" y="182.9519052838329" font-family="Times, Georgia, serif" font-style="italic" font-size="14" text-anchor="start">E</text>
<circle cx="45.0" cy="100.00000000000001" r="2.5" fill="#1d1d1f"/>
<text x="35.0" y="118.00000000000001" font-family="Times, Georgia, serif" font-style="italic" font-size="14" text-anchor="end">D</text>
<circle cx="82.49999999999997" cy="35.04809471616713" r="2.5" fill="#1d1d1f"/>
<text x="70.49999999999997" y="39.04809471616713" font-family="Times, Georgia, serif" font-style="italic" font-size="14" text-anchor="end">C</text>
</svg>