<svg xmlns="http://www.w3.org/2000/svg" viewBox="0 0 220 180" width="220" height="180">
<defs>
  <marker id="arrow" viewBox="0 0 10 10" refX="9" refY="5" markerWidth="7" markerHeight="7" orient="auto-start-reverse">
    <path d="M0,0 L10,5 L0,10 z" fill="#1d1d1f"/>
  </marker>
</defs>
<line x1="50" y1="30" x2="180" y2="30" stroke="#1d1d1f" stroke-width="1.4" fill="none"/>
<line x1="180" y1="30" x2="180" y2="160" stroke="#1d1d1f" stroke-width="1.4" fill="none"/>
<line x1="180" y1="160" x2="50" y2="160" stroke="#1d1d1f" stroke-width="1.4" fill="none"/>
<line x1="50" y1="160" x2="50" y2="30" stroke="#1d1d1f" stroke-width="1.4" fill="none"/>
<line x1="115.0" y1="30" x2="180" y2="95.0" stroke="#1d1d1f" stroke-width="1.4" fill="none"/>
<line x1="180" y1="95.0" x2="115.0" y2="160" stroke="#1d1d1f" stroke-width="1.4" fill="none"/>
<line x1="115.0" y1="160" x2="50" y2="95.0" stroke="#1d1d1f" stroke-width="1.4" fill="none"/>
<line x1="50" y1="95.0" x2="115.0" y2="30" stroke="#1d1d1f" stroke-width="1.4" fill="none"/>
<circle cx="50" cy="30" r="2.5" fill="#1d1d1f"/>
<text x="40" y="22" font-family="Times, Georgia, serif" font-style="italic" font-size="14" text-anchor="end">A</text>
<circle cx="180" cy="30" r="2.5" fill="#1d1d1f"/>
<text x="190" y="22" font-family="Times, Georgia, serif" font-style="italic" font-size="14" text-anchor="start">B</text>
<circle cx="180" cy="160" r="2.5" fill="#1d1d1f"/>
<text x="190" y="178" font-family="Times, Georgia, serif" font-style="italic" font-size="14" text-anchor="start">C</text>
<circle cx="50" cy="160" r="2.5" fill="#1d1d1f"/>
<text x="40" y="178" font-family="Times, Georgia, serif" font-style="italic" font-size="14" text-anchor="end">D</text>
<circle cx="115.0" cy="30" r="2.5" fill="#1d1d1f"/>
<text x="115.0" y="22" font-family="Times, Georgia, serif" font-style="italic" font-size="14" text-anchor="middle">E</text>
<circle cx="180" cy="95.0" r="2.5" fill="#1d1d1f"/>
<text x="192" y="99.0" font-family="Times, Georgia, serif" font-style="italic" font-size="14" text-anchor="start">F</text>
<circle cx="115.0" cy="160" r="2.5" fill="#1d1d1f"/>
<text x="115.0" y="176" font-family="Times, Georgia, serif" font-style="italic" font-size="14" text-anchor="middle">G</text>
<circle cx="50" cy="95.0" r="2.5" fill="#1d1d1f"/>
<text x="38" y="99.0" font-family="Times, Georgia, serif" font-style="italic" font-size="14" text-anchor="end">H</text>
</svg>