<svg xmlns="http://www.w3.org/2000/svg" viewBox="0 0 200 140" width="200" height="140">
<defs>
  <marker id="arrow" viewBox="0 0 10 10" refX="9" refY="5" markerWidth="7" markerHeight="7" orient="auto-start-reverse">
    <path d="M0,0 L10,5 L0,10 z" fill="#1d1d1f"/>
  </marker>
</defs>
<line x1="30" y1="110" x2="170" y2="30" stroke="#1d1d1f" stroke-width="1.4" fill="none"/>
<line x1="170" y1="30" x2="170" y2="110" stroke="#1d1d1f" stroke-width="1.4" fill="none"/>
<line x1="30" y1="110" x2="170" y2="110" stroke="#1d1d1f" stroke-width="1.4" fill="none"/>
<line x1="72.0" y1="110" x2="72.0" y2="86.0" stroke="#1d1d1f" stroke-width="1.4" fill="none"/>
<path d="M 164.00 110.00 L 164.00 104.00 L 170.00 104.00" stroke="#1d1d1f" stroke-width="1.4" fill="none"/>
<path d="M 66.00 110.00 L 66.00 104.00 L 72.00 104.00" stroke="#1d1d1f" stroke-width="1.4" fill="none"/>
<circle cx="30" cy="110" r="2.5" fill="#1d1d1f"/>
<text x="20" y="128" font-family="Times, Georgia, serif" font-style="italic" font-size="14" text-anchor="end">A</text>
<circle cx="170" cy="30" r="2.5" fill="#1d1d1f"/>
<text x="170" y="22" font-family="Times, Georgia, serif" font-style="italic" font-size="14" text-anchor="middle">B</text>
<circle cx="72.0" cy="86.0" r="2.5" fill="#1d1d1f"/>
<text x="72.0" y="78.0" font-family="Times, Georgia, serif" font-style="italic" font-size="14" text-anchor="middle">E</text>
<circle cx="170" cy="110" r="2.5" fill="#1d1d1f"/>
<text x="180" y="128" font-family="Times, Georgia, serif" font-style="italic" font-size="14" text-anchor="start">C</text>
<circle cx="72.0" cy="110" r="2.5" fill="#1d1d1f"/>
<text x="72.0" y="126" font-family="Times, Georgia, serif" font-style="italic" font-size="14" text-anchor="middle">D</text>
</svg>