<svg xmlns="http://www.w3.org/2000/svg" viewBox="0 0 260 130" width="260" height="130">
<defs>
  <marker id="arrow" viewBox="0 0 10 10" refX="9" refY="5" markerWidth="7" markerHeight="7" orient="auto-start-reverse">
    <path d="M0,0 L10,5 L0,10 z" fill="#1d1d1f"/>
  </marker>
</defs>
<line x1="20" y1="110" x2="240" y2="110" stroke="#1d1d1f" stroke-width="1.4" fill="none"/>
<line x1="20" y1="110" x2="130" y2="25" stroke="#1d1d1f" stroke-width="1.4" fill="none"/>
<line x1="240" y1="110" x2="130" y2="25" stroke="#1d1d1f" stroke-width="1.4" fill="none"/>
<line x1="130" y1="25" x2="95" y2="110" stroke="#1d1d1f" stroke-width="1.4" fill="none"/>
<line x1="130" y1="25" x2="165" y2="110" stroke="#1d1d1f" stroke-width="1.4" fill="none"/>
<text x="42" y="107" font-family="Times, Georgia, serif" font-style="italic" font-size="11" text-anchor="middle">y</text>
<text x="58" y="101" font-family="Times, Georgia, serif" font-style="italic" font-size="11" text-anchor="middle">x</text>
<text x="88" y="107" font-family="Times, Georgia, serif" font-style="italic" font-size="11" text-anchor="middle">m</text>
<text x="103" y="107" font-family="Times, Georgia, serif" font-style="italic" font-size="11" text-anchor="middle">n</text>
<text x="173" y="107" font-family="Times, Georgia, serif" font-style="italic" font-size="11" text-anchor="middle">b</text>
<text x="218" y="107" font-family="Times, Georgia, serif" font-style="italic" font-size="11" text-anchor="middle">a</text>
<circle cx="130" cy="25" r="2.5" fill="#1d1d1f"/>
<text x="130" y="17" font-family="Times, Georgia, serif" font-style="italic" font-size="14" text-anchor="middle">E</text>
<circle cx="20" cy="110" r="2.5" fill="#1d1d1f"/>
<text x="10" y="128" font-family="Times, Georgia, serif" font-style="italic" font-size="14" text-anchor="end">A</text>
<circle cx="95" cy="110" r="2.5" fill="#1d1d1f"/>
<text x="95" y="126" font-family="Times, Georgia, serif" font-style="italic" font-size="14" text-anchor="middle">B</text>
<circle cx="165" cy="110" r="2.5" fill="#1d1d1f"/>
<text x="165" y="126" font-family="Times, Georgia, serif" font-style="italic" font-size="14" text-anchor="middle">C</text>
<circle cx="240" cy="110" r="2.5" fill="#1d1d1f"/>
<text x="250" y="128" font-family="Times, Georgia, serif" font-style="italic" font-size="14" text-anchor="start">D</text>
</svg>