<svg xmlns="http://www.w3.org/2000/svg" viewBox="0 0 220 180" width="220" height="180">
<defs>
  <marker id="arrow" viewBox="0 0 10 10" refX="9" refY="5" markerWidth="7" markerHeight="7" orient="auto-start-reverse">
    <path d="M0,0 L10,5 L0,10 z" fill="#1d1d1f"/>
  </marker>
</defs>
<line x1="110" y1="20" x2="165" y2="90" stroke="#1d1d1f" stroke-width="1.4" fill="none"/>
<line x1="110" y1="20" x2="110" y2="125" stroke="#1d1d1f" stroke-width="1.4" fill="none"/>
<line x1="110" y1="20" x2="55" y2="90" stroke="#1d1d1f" stroke-width="1.4" fill="none"/>
<line x1="110" y1="20" x2="110" y2="55" stroke="#1d1d1f" stroke-width="1.4" fill="none"/>
<line x1="110" y1="160" x2="165" y2="90" stroke="#1d1d1f" stroke-width="1.4" fill="none"/>
<line x1="110" y1="160" x2="110" y2="125" stroke="#1d1d1f" stroke-width="1.4" fill="none"/>
<line x1="110" y1="160" x2="55" y2="90" stroke="#1d1d1f" stroke-width="1.4" fill="none"/>
<line x1="110" y1="160" x2="110" y2="55" stroke="#1d1d1f" stroke-width="1.2" stroke-dasharray="4,3" fill="none"/>
<line x1="165" y1="90" x2="110" y2="125" stroke="#1d1d1f" stroke-width="1.4" fill="none"/>
<line x1="110" y1="125" x2="55" y2="90" stroke="#1d1d1f" stroke-width="1.4" fill="none"/>
<line x1="55" y1="90" x2="110" y2="55" stroke="#1d1d1f" stroke-width="1.2" stroke-dasharray="4,3" fill="none"/>
<line x1="110" y1="55" x2="165" y2="90" stroke="#1d1d1f" stroke-width="1.2" stroke-dasharray="4,3" fill="none"/>
<line x1="110" y1="90" x2="165" y2="90" stroke="#1d1d1f" stroke-width="1.4" fill="none"/>
<circle cx="110" cy="20" r="2.5" fill="#1d1d1f"/>
<text x="110" y="12" font-family="Times, Georgia, serif" font-style="italic" font-size="14" text-anchor="middle">E</text>
<circle cx="165" cy="90" r="2.5" fill="#1d1d1f"/>
<text x="177" y="94" font-family="Times, Georgia, serif" font-style="italic" font-size="14" text-anchor="start">A</text>
<circle cx="110" cy="125" r="2.5" fill="#1d1d1f"/>
<text x="110" y="141" font-family="Times, Georgia, serif" font-style="italic" font-size="14" text-anchor="middle">B</text>
<circle cx="55" cy="90" r="2.5" fill="#1d1d1f"/>
<text x="43" y="94" font-family="Times, Georgia, serif" font-style="italic" font-size="14" text-anchor="end">C</text>
<circle cx="110" cy="55" r="2.5" fill="#1d1d1f"/>
<text x="110" y="47" font-family="Times, Georgia, serif" font-style="italic" font-size="14" text-anchor="middle">D</text>
<circle cx="110" cy="160" r="2.5" fill="#1d1d1f"/>
<text x="110" y="176" font-family="Times, Georgia, serif" font-style="italic" font-size="14" text-anchor="middle">F</text>
<circle cx="110" cy="90" r="2.5" fill="#1d1d1f"/>
<text x="100" y="108" font-family="Times, Georgia, serif" font-style="italic" font-size="14" text-anchor="end">O</text>
</svg>