<svg xmlns="http://www.w3.org/2000/svg" viewBox="0 0 200 160" width="200" height="160">
<defs>
  <marker id="arrow" viewBox="0 0 10 10" refX="9" refY="5" markerWidth="7" markerHeight="7" orient="auto-start-reverse">
    <path d="M0,0 L10,5 L0,10 z" fill="#1d1d1f"/>
  </marker>
</defs>
<line x1="110" y1="25" x2="30" y2="130" stroke="#1d1d1f" stroke-width="1.4" fill="none"/>
<line x1="30" y1="130" x2="190" y2="130" stroke="#1d1d1f" stroke-width="1.4" fill="none"/>
<line x1="110" y1="25" x2="190" y2="130" stroke="#1d1d1f" stroke-width="1.4" fill="none"/>
<line x1="110.0" y1="130.0" x2="150.0" y2="77.5" stroke="#1d1d1f" stroke-width="1.4" fill="none"/>
<line x1="150.0" y1="77.5" x2="70.0" y2="77.5" stroke="#1d1d1f" stroke-width="1.4" fill="none"/>
<line x1="70.0" y1="77.5" x2="110.0" y2="130.0" stroke="#1d1d1f" stroke-width="1.4" fill="none"/>
<circle cx="110" cy="25" r="2.5" fill="#1d1d1f"/>
<text x="110" y="17" font-family="Times, Georgia, serif" font-style="italic" font-size="14" text-anchor="middle">A</text>
<circle cx="30" cy="130" r="2.5" fill="#1d1d1f"/>
<text x="20" y="148" font-family="Times, Georgia, serif" font-style="italic" font-size="14" text-anchor="end">B</text>
<circle cx="190" cy="130" r="2.5" fill="#1d1d1f"/>
<text x="200" y="148" font-family="Times, Georgia, serif" font-style="italic" font-size="14" text-anchor="start">C</text>
<circle cx="110.0" cy="130.0" r="2.5" fill="#1d1d1f"/>
<text x="110.0" y="146.0" font-family="Times, Georgia, serif" font-style="italic" font-size="14" text-anchor="middle">D</text>
<circle cx="150.0" cy="77.5" r="2.5" fill="#1d1d1f"/>
<text x="162.0" y="81.5" font-family="Times, Georgia, serif" font-style="italic" font-size="14" text-anchor="start">E</text>
<circle cx="70.0" cy="77.5" r="2.5" fill="#1d1d1f"/>
<text x="58.0" y="81.5" font-family="Times, Georgia, serif" font-style="italic" font-size="14" text-anchor="end">F</text>
</svg>