<svg xmlns="http://www.w3.org/2000/svg" viewBox="0 0 240 200" width="240" height="200">
<defs>
  <marker id="arrow" viewBox="0 0 10 10" refX="9" refY="5" markerWidth="7" markerHeight="7" orient="auto-start-reverse">
    <path d="M0,0 L10,5 L0,10 z" fill="#1d1d1f"/>
  </marker>
</defs>
<line x1="133.84615384615384" y1="97" x2="133.84615384615384" y2="103" stroke="#1d1d1f" stroke-width="1.4" fill="none"/>
<line x1="106.15384615384616" y1="97" x2="106.15384615384616" y2="103" stroke="#1d1d1f" stroke-width="1.4" fill="none"/>
<line x1="117" y1="113.84615384615384" x2="123" y2="113.84615384615384" stroke="#1d1d1f" stroke-width="1.4" fill="none"/>
<line x1="117" y1="86.15384615384616" x2="123" y2="86.15384615384616" stroke="#1d1d1f" stroke-width="1.4" fill="none"/>
<line x1="147.69230769230768" y1="97" x2="147.69230769230768" y2="103" stroke="#1d1d1f" stroke-width="1.4" fill="none"/>
<line x1="92.3076923076923" y1="97" x2="92.3076923076923" y2="103" stroke="#1d1d1f" stroke-width="1.4" fill="none"/>
<line x1="117" y1="127.6923076923077" x2="123" y2="127.6923076923077" stroke="#1d1d1f" stroke-width="1.4" fill="none"/>
<line x1="117" y1="72.3076923076923" x2="123" y2="72.3076923076923" stroke="#1d1d1f" stroke-width="1.4" fill="none"/>
<line x1="161.53846153846155" y1="97" x2="161.53846153846155" y2="103" stroke="#1d1d1f" stroke-width="1.4" fill="none"/>
<line x1="78.46153846153845" y1="97" x2="78.46153846153845" y2="103" stroke="#1d1d1f" stroke-width="1.4" fill="none"/>
<line x1="117" y1="141.53846153846155" x2="123" y2="141.53846153846155" stroke="#1d1d1f" stroke-width="1.4" fill="none"/>
<line x1="117" y1="58.46153846153846" x2="123" y2="58.46153846153846" stroke="#1d1d1f" stroke-width="1.4" fill="none"/>
<line x1="175.3846153846154" y1="97" x2="175.3846153846154" y2="103" stroke="#1d1d1f" stroke-width="1.4" fill="none"/>
<line x1="64.61538461538461" y1="97" x2="64.61538461538461" y2="103" stroke="#1d1d1f" stroke-width="1.4" fill="none"/>
<line x1="117" y1="155.3846153846154" x2="123" y2="155.3846153846154" stroke="#1d1d1f" stroke-width="1.4" fill="none"/>
<line x1="117" y1="44.61538461538461" x2="123" y2="44.61538461538461" stroke="#1d1d1f" stroke-width="1.4" fill="none"/>
<line x1="189.23076923076923" y1="97" x2="189.23076923076923" y2="103" stroke="#1d1d1f" stroke-width="1.4" fill="none"/>
<line x1="50.769230769230774" y1="97" x2="50.769230769230774" y2="103" stroke="#1d1d1f" stroke-width="1.4" fill="none"/>
<line x1="117" y1="169.23076923076923" x2="123" y2="169.23076923076923" stroke="#1d1d1f" stroke-width="1.4" fill="none"/>
<line x1="117" y1="30.769230769230774" x2="123" y2="30.769230769230774" stroke="#1d1d1f" stroke-width="1.4" fill="none"/>
<line x1="203.0769230769231" y1="97" x2="203.0769230769231" y2="103" stroke="#1d1d1f" stroke-width="1.4" fill="none"/>
<line x1="36.92307692307692" y1="97" x2="36.92307692307692" y2="103" stroke="#1d1d1f" stroke-width="1.4" fill="none"/>
<line x1="117" y1="183.0769230769231" x2="123" y2="183.0769230769231" stroke="#1d1d1f" stroke-width="1.4" fill="none"/>
<line x1="117" y1="16.92307692307692" x2="123" y2="16.92307692307692" stroke="#1d1d1f" stroke-width="1.4" fill="none"/>
<line x1="25" y1="100" x2="215" y2="100" stroke="#1d1d1f" stroke-width="1.4" fill="none" marker-start="url(#arrow)" marker-end="url(#arrow)"/>
<line x1="120" y1="5" x2="120" y2="195" stroke="#1d1d1f" stroke-width="1.4" fill="none" marker-start="url(#arrow)" marker-end="url(#arrow)"/>
<text x="224" y="105" font-family="Times, Georgia, serif" font-style="italic" font-size="14" text-anchor="middle">x</text>
<text x="120" y="-2" font-family="Times, Georgia, serif" font-style="italic" font-size="14" text-anchor="middle">y</text>
<line x1="40" y1="165" x2="210" y2="80" stroke="#1d1d1f" stroke-width="1.4" fill="none"/>
<line x1="120" y1="125" x2="155" y2="125" stroke="#1d1d1f" stroke-width="1.4" fill="none"/>
<line x1="155" y1="125" x2="155" y2="107" stroke="#1d1d1f" stroke-width="1.4" fill="none"/>
<text x="137.5" y="139" font-family="Times, Georgia, serif" font-style="normal" font-size="10" text-anchor="middle">4</text>
<text x="167" y="116.0" font-family="Times, Georgia, serif" font-style="italic" font-size="10" text-anchor="start">4m</text>
<circle cx="120" cy="125" r="2.5" fill="#1d1d1f"/>
<text x="108" y="129" font-family="Times, Georgia, serif" font-style="normal" font-size="14" text-anchor="end">(0, b)</text>
</svg>