<svg xmlns="http://www.w3.org/2000/svg" viewBox="0 0 240 200" width="240" height="200">
<defs>
  <marker id="arrow" viewBox="0 0 10 10" refX="9" refY="5" markerWidth="7" markerHeight="7" orient="auto-start-reverse">
    <path d="M0,0 L10,5 L0,10 z" fill="#1d1d1f"/>
  </marker>
</defs>
<line x1="133.07692307692307" y1="97" x2="133.07692307692307" y2="103" stroke="#1d1d1f" stroke-width="1.4" fill="none"/>
<line x1="106.92307692307692" y1="97" x2="106.92307692307692" y2="103" stroke="#1d1d1f" stroke-width="1.4" fill="none"/>
<line x1="117" y1="113.07692307692308" x2="123" y2="113.07692307692308" stroke="#1d1d1f" stroke-width="1.4" fill="none"/>
<line x1="117" y1="86.92307692307692" x2="123" y2="86.92307692307692" stroke="#1d1d1f" stroke-width="1.4" fill="none"/>
<line x1="146.15384615384616" y1="97" x2="146.15384615384616" y2="103" stroke="#1d1d1f" stroke-width="1.4" fill="none"/>
<line x1="93.84615384615384" y1="97" x2="93.84615384615384" y2="103" stroke="#1d1d1f" stroke-width="1.4" fill="none"/>
<line x1="117" y1="126.15384615384616" x2="123" y2="126.15384615384616" stroke="#1d1d1f" stroke-width="1.4" fill="none"/>
<line x1="117" y1="73.84615384615384" x2="123" y2="73.84615384615384" stroke="#1d1d1f" stroke-width="1.4" fill="none"/>
<line x1="159.23076923076923" y1="97" x2="159.23076923076923" y2="103" stroke="#1d1d1f" stroke-width="1.4" fill="none"/>
<line x1="80.76923076923077" y1="97" x2="80.76923076923077" y2="103" stroke="#1d1d1f" stroke-width="1.4" fill="none"/>
<line x1="117" y1="139.23076923076923" x2="123" y2="139.23076923076923" stroke="#1d1d1f" stroke-width="1.4" fill="none"/>
<line x1="117" y1="60.769230769230774" x2="123" y2="60.769230769230774" stroke="#1d1d1f" stroke-width="1.4" fill="none"/>
<line x1="172.30769230769232" y1="97" x2="172.30769230769232" y2="103" stroke="#1d1d1f" stroke-width="1.4" fill="none"/>
<line x1="67.6923076923077" y1="97" x2="67.6923076923077" y2="103" stroke="#1d1d1f" stroke-width="1.4" fill="none"/>
<line x1="117" y1="152.30769230769232" x2="123" y2="152.30769230769232" stroke="#1d1d1f" stroke-width="1.4" fill="none"/>
<line x1="117" y1="47.69230769230769" x2="123" y2="47.69230769230769" stroke="#1d1d1f" stroke-width="1.4" fill="none"/>
<line x1="185.3846153846154" y1="97" x2="185.3846153846154" y2="103" stroke="#1d1d1f" stroke-width="1.4" fill="none"/>
<line x1="54.61538461538461" y1="97" x2="54.61538461538461" y2="103" stroke="#1d1d1f" stroke-width="1.4" fill="none"/>
<line x1="117" y1="165.3846153846154" x2="123" y2="165.3846153846154" stroke="#1d1d1f" stroke-width="1.4" fill="none"/>
<line x1="117" y1="34.61538461538461" x2="123" y2="34.61538461538461" stroke="#1d1d1f" stroke-width="1.4" fill="none"/>
<line x1="198.46153846153845" y1="97" x2="198.46153846153845" y2="103" stroke="#1d1d1f" stroke-width="1.4" fill="none"/>
<line x1="41.53846153846155" y1="97" x2="41.53846153846155" y2="103" stroke="#1d1d1f" stroke-width="1.4" fill="none"/>
<line x1="117" y1="178.46153846153845" x2="123" y2="178.46153846153845" stroke="#1d1d1f" stroke-width="1.4" fill="none"/>
<line x1="117" y1="21.538461538461547" x2="123" y2="21.538461538461547" stroke="#1d1d1f" stroke-width="1.4" fill="none"/>
<line x1="30" y1="100" x2="210" y2="100" stroke="#1d1d1f" stroke-width="1.4" fill="none" marker-start="url(#arrow)" marker-end="url(#arrow)"/>
<line x1="120" y1="10" x2="120" y2="190" stroke="#1d1d1f" stroke-width="1.4" fill="none" marker-start="url(#arrow)" marker-end="url(#arrow)"/>
<text x="219" y="105" font-family="Times, Georgia, serif" font-style="italic" font-size="14" text-anchor="middle">x</text>
<text x="120" y="3" font-family="Times, Georgia, serif" font-style="italic" font-size="14" text-anchor="middle">y</text>
<line x1="40" y1="140" x2="200" y2="60" stroke="#1d1d1f" stroke-width="1.4" fill="none"/>
<line x1="80" y1="20" x2="160" y2="180" stroke="#1d1d1f" stroke-width="1.4" fill="none"/>
<line x1="120" y1="100" x2="170" y2="100" stroke="#1d1d1f" stroke-width="1.4" fill="none"/>
<line x1="170" y1="100" x2="170" y2="75" stroke="#1d1d1f" stroke-width="1.4" fill="none"/>
<text x="145" y="114" font-family="Times, Georgia, serif" font-style="italic" font-size="11" text-anchor="middle">a</text>
<text x="180" y="88" font-family="Times, Georgia, serif" font-style="italic" font-size="11" text-anchor="middle">b</text>
<text x="92" y="138" font-family="Times, Georgia, serif" font-style="italic" font-size="10" text-anchor="middle">-a</text>
</svg>