<svg xmlns="http://www.w3.org/2000/svg" viewBox="0 0 280 140" width="280" height="140">
<defs>
  <marker id="arrow" viewBox="0 0 10 10" refX="9" refY="5" markerWidth="7" markerHeight="7" orient="auto-start-reverse">
    <path d="M0,0 L10,5 L0,10 z" fill="#1d1d1f"/>
  </marker>
</defs>
<line x1="110" y1="30" x2="170" y2="30" stroke="#1d1d1f" stroke-width="1.4" fill="none"/>
<line x1="170" y1="30" x2="245" y2="110" stroke="#1d1d1f" stroke-width="1.4" fill="none"/>
<line x1="245" y1="110" x2="35" y2="110" stroke="#1d1d1f" stroke-width="1.4" fill="none"/>
<line x1="35" y1="110" x2="110" y2="30" stroke="#1d1d1f" stroke-width="1.4" fill="none"/>
<line x1="110" y1="30" x2="110" y2="110" stroke="#1d1d1f" stroke-width="1.0" stroke-dasharray="3,3" fill="none"/>
<line x1="170" y1="30" x2="170" y2="110" stroke="#1d1d1f" stroke-width="1.0" stroke-dasharray="3,3" fill="none"/>
<text x="140.0" y="24" font-family="Times, Georgia, serif" font-style="normal" font-size="11" text-anchor="middle">5</text>
<text x="174" y="70.0" font-family="Times, Georgia, serif" font-style="normal" font-size="11" text-anchor="start">4</text>
<text x="213.5" y="66.0" font-family="Times, Georgia, serif" font-style="normal" font-size="11" text-anchor="start">8</text>
<circle cx="110" cy="30" r="2.5" fill="#1d1d1f"/>
<text x="100" y="22" font-family="Times, Georgia, serif" font-style="italic" font-size="14" text-anchor="end">A</text>
<circle cx="170" cy="30" r="2.5" fill="#1d1d1f"/>
<text x="180" y="22" font-family="Times, Georgia, serif" font-style="italic" font-size="14" text-anchor="start">B</text>
<circle cx="245" cy="110" r="2.5" fill="#1d1d1f"/>
<text x="255" y="128" font-family="Times, Georgia, serif" font-style="italic" font-size="14" text-anchor="start">C</text>
<circle cx="35" cy="110" r="2.5" fill="#1d1d1f"/>
<text x="25" y="128" font-family="Times, Georgia, serif" font-style="italic" font-size="14" text-anchor="end">D</text>
<circle cx="110" cy="110" r="2.5" fill="#1d1d1f"/>
<text x="110" y="126" font-family="Times, Georgia, serif" font-style="italic" font-size="14" text-anchor="middle">X</text>
<circle cx="170" cy="110" r="2.5" fill="#1d1d1f"/>
<text x="170" y="126" font-family="Times, Georgia, serif" font-style="italic" font-size="14" text-anchor="middle">Y</text>
</svg>