<svg xmlns="http://www.w3.org/2000/svg" viewBox="0 0 220 180" width="220" height="180">
<defs>
  <marker id="arrow" viewBox="0 0 10 10" refX="9" refY="5" markerWidth="7" markerHeight="7" orient="auto-start-reverse">
    <path d="M0,0 L10,5 L0,10 z" fill="#1d1d1f"/>
  </marker>
</defs>
<line x1="30" y1="30" x2="90" y2="100" stroke="#1d1d1f" stroke-width="1.4" fill="none"/>
<line x1="90" y1="100" x2="160" y2="170" stroke="#1d1d1f" stroke-width="1.4" fill="none"/>
<line x1="30" y1="30" x2="180" y2="35" stroke="#1d1d1f" stroke-width="1.4" fill="none"/>
<line x1="90" y1="100" x2="180" y2="35" stroke="#1d1d1f" stroke-width="1.4" fill="none"/>
<line x1="180" y1="35" x2="200" y2="80" stroke="#1d1d1f" stroke-width="1.4" fill="none"/>
<line x1="160" y1="170" x2="210" y2="115" stroke="#1d1d1f" stroke-width="1.4" stroke-dasharray="3,3" fill="none"/>
<path d="M 173.00 34.77 L 167.33 38.87 L 174.33 39.10" stroke="#1d1d1f" stroke-width="1.4" fill="none"/>
<circle cx="30" cy="30" r="2.5" fill="#1d1d1f"/>
<text x="18" y="34" font-family="Times, Georgia, serif" font-style="italic" font-size="14" text-anchor="end">A</text>
<circle cx="90" cy="100" r="2.5" fill="#1d1d1f"/>
<text x="80" y="118" font-family="Times, Georgia, serif" font-style="italic" font-size="14" text-anchor="end">D</text>
<circle cx="160" cy="170" r="2.5" fill="#1d1d1f"/>
<text x="170" y="188" font-family="Times, Georgia, serif" font-style="italic" font-size="14" text-anchor="start">B</text>
<circle cx="180" cy="35" r="2.5" fill="#1d1d1f"/>
<text x="190" y="27" font-family="Times, Georgia, serif" font-style="italic" font-size="14" text-anchor="start">E</text>
<circle cx="200" cy="80" r="2.5" fill="#1d1d1f"/>
<text x="212" y="84" font-family="Times, Georgia, serif" font-style="italic" font-size="14" text-anchor="start">C</text>
<circle cx="210" cy="115" r="2.5" fill="#1d1d1f"/>
<text x="222" y="119" font-family="Times, Georgia, serif" font-style="italic" font-size="14" text-anchor="start">H</text>
</svg>