<svg xmlns="http://www.w3.org/2000/svg" viewBox="0 0 280 220" width="280" height="220">
<defs>
  <marker id="arrow" viewBox="0 0 10 10" refX="9" refY="5" markerWidth="7" markerHeight="7" orient="auto-start-reverse">
    <path d="M0,0 L10,5 L0,10 z" fill="#1d1d1f"/>
  </marker>
</defs>
<line x1="154" y1="106" x2="154" y2="114" stroke="#1d1d1f" stroke-width="1.4" fill="none"/>
<line x1="126" y1="106" x2="126" y2="114" stroke="#1d1d1f" stroke-width="1.4" fill="none"/>
<line x1="136" y1="124" x2="144" y2="124" stroke="#1d1d1f" stroke-width="1.4" fill="none"/>
<line x1="136" y1="96" x2="144" y2="96" stroke="#1d1d1f" stroke-width="1.4" fill="none"/>
<text x="154" y="126" font-family="Times, Georgia, serif" font-style="normal" font-size="10" text-anchor="middle">1</text>
<text x="126" y="126" font-family="Times, Georgia, serif" font-style="normal" font-size="10" text-anchor="middle">-1</text>
<text x="130" y="100" font-family="Times, Georgia, serif" font-style="normal" font-size="10" text-anchor="end">1</text>
<text x="130" y="128" font-family="Times, Georgia, serif" font-style="normal" font-size="10" text-anchor="end">-1</text>
<line x1="168" y1="106" x2="168" y2="114" stroke="#1d1d1f" stroke-width="1.4" fill="none"/>
<line x1="112" y1="106" x2="112" y2="114" stroke="#1d1d1f" stroke-width="1.4" fill="none"/>
<line x1="136" y1="138" x2="144" y2="138" stroke="#1d1d1f" stroke-width="1.4" fill="none"/>
<line x1="136" y1="82" x2="144" y2="82" stroke="#1d1d1f" stroke-width="1.4" fill="none"/>
<text x="168" y="126" font-family="Times, Georgia, serif" font-style="normal" font-size="10" text-anchor="middle">2</text>
<text x="112" y="126" font-family="Times, Georgia, serif" font-style="normal" font-size="10" text-anchor="middle">-2</text>
<text x="130" y="86" font-family="Times, Georgia, serif" font-style="normal" font-size="10" text-anchor="end">2</text>
<text x="130" y="142" font-family="Times, Georgia, serif" font-style="normal" font-size="10" text-anchor="end">-2</text>
<line x1="182" y1="106" x2="182" y2="114" stroke="#1d1d1f" stroke-width="1.4" fill="none"/>
<line x1="98" y1="106" x2="98" y2="114" stroke="#1d1d1f" stroke-width="1.4" fill="none"/>
<line x1="136" y1="152" x2="144" y2="152" stroke="#1d1d1f" stroke-width="1.4" fill="none"/>
<line x1="136" y1="68" x2="144" y2="68" stroke="#1d1d1f" stroke-width="1.4" fill="none"/>
<text x="182" y="126" font-family="Times, Georgia, serif" font-style="normal" font-size="10" text-anchor="middle">3</text>
<text x="98" y="126" font-family="Times, Georgia, serif" font-style="normal" font-size="10" text-anchor="middle">-3</text>
<text x="130" y="72" font-family="Times, Georgia, serif" font-style="normal" font-size="10" text-anchor="end">3</text>
<text x="130" y="156" font-family="Times, Georgia, serif" font-style="normal" font-size="10" text-anchor="end">-3</text>
<line x1="196" y1="106" x2="196" y2="114" stroke="#1d1d1f" stroke-width="1.4" fill="none"/>
<line x1="84" y1="106" x2="84" y2="114" stroke="#1d1d1f" stroke-width="1.4" fill="none"/>
<line x1="136" y1="166" x2="144" y2="166" stroke="#1d1d1f" stroke-width="1.4" fill="none"/>
<line x1="136" y1="54" x2="144" y2="54" stroke="#1d1d1f" stroke-width="1.4" fill="none"/>
<text x="196" y="126" font-family="Times, Georgia, serif" font-style="normal" font-size="10" text-anchor="middle">4</text>
<text x="84" y="126" font-family="Times, Georgia, serif" font-style="normal" font-size="10" text-anchor="middle">-4</text>
<text x="130" y="58" font-family="Times, Georgia, serif" font-style="normal" font-size="10" text-anchor="end">4</text>
<text x="130" y="170" font-family="Times, Georgia, serif" font-style="normal" font-size="10" text-anchor="end">-4</text>
<line x1="210" y1="106" x2="210" y2="114" stroke="#1d1d1f" stroke-width="1.4" fill="none"/>
<line x1="70" y1="106" x2="70" y2="114" stroke="#1d1d1f" stroke-width="1.4" fill="none"/>
<line x1="136" y1="180" x2="144" y2="180" stroke="#1d1d1f" stroke-width="1.4" fill="none"/>
<line x1="136" y1="40" x2="144" y2="40" stroke="#1d1d1f" stroke-width="1.4" fill="none"/>
<text x="210" y="126" font-family="Times, Georgia, serif" font-style="normal" font-size="10" text-anchor="middle">5</text>
<text x="70" y="126" font-family="Times, Georgia, serif" font-style="normal" font-size="10" text-anchor="middle">-5</text>
<text x="130" y="44" font-family="Times, Georgia, serif" font-style="normal" font-size="10" text-anchor="end">5</text>
<text x="130" y="184" font-family="Times, Georgia, serif" font-style="normal" font-size="10" text-anchor="end">-5</text>
<line x1="224" y1="106" x2="224" y2="114" stroke="#1d1d1f" stroke-width="1.4" fill="none"/>
<line x1="56" y1="106" x2="56" y2="114" stroke="#1d1d1f" stroke-width="1.4" fill="none"/>
<line x1="136" y1="194" x2="144" y2="194" stroke="#1d1d1f" stroke-width="1.4" fill="none"/>
<line x1="136" y1="26" x2="144" y2="26" stroke="#1d1d1f" stroke-width="1.4" fill="none"/>
<text x="224" y="126" font-family="Times, Georgia, serif" font-style="normal" font-size="10" text-anchor="middle">6</text>
<text x="56" y="126" font-family="Times, Georgia, serif" font-style="normal" font-size="10" text-anchor="middle">-6</text>
<text x="130" y="30" font-family="Times, Georgia, serif" font-style="normal" font-size="10" text-anchor="end">6</text>
<text x="130" y="198" font-family="Times, Georgia, serif" font-style="normal" font-size="10" text-anchor="end">-6</text>
<line x1="30" y1="110" x2="250" y2="110" stroke="#1d1d1f" stroke-width="1.4" fill="none" marker-start="url(#arrow)" marker-end="url(#arrow)"/>
<line x1="140" y1="0" x2="140" y2="220" stroke="#1d1d1f" stroke-width="1.4" fill="none" marker-start="url(#arrow)" marker-end="url(#arrow)"/>
<text x="262" y="115" font-family="Times, Georgia, serif" font-style="italic" font-size="14" text-anchor="middle">x</text>
<text x="140" y="-10" font-family="Times, Georgia, serif" font-style="italic" font-size="14" text-anchor="middle">y</text>
</svg>