<svg xmlns="http://www.w3.org/2000/svg" viewBox="0 0 220 100" width="220" height="100">
<defs>
  <marker id="arrow" viewBox="0 0 10 10" refX="9" refY="5" markerWidth="7" markerHeight="7" orient="auto-start-reverse">
    <path d="M0,0 L10,5 L0,10 z" fill="#1d1d1f"/>
  </marker>
</defs>
<line x1="40.0" y1="28.0" x2="20.947441116742347" y2="39.0" stroke="#1d1d1f" stroke-width="1.4" fill="none"/>
<line x1="20.947441116742347" y1="39.0" x2="20.94744111674235" y2="61.0" stroke="#1d1d1f" stroke-width="1.4" fill="none"/>
<line x1="20.94744111674235" y1="61.0" x2="39.99999999999999" y2="72.0" stroke="#1d1d1f" stroke-width="1.4" fill="none"/>
<line x1="39.99999999999999" y1="72.0" x2="59.052558883257646" y2="61.000000000000014" stroke="#1d1d1f" stroke-width="1.4" fill="none"/>
<line x1="59.052558883257646" y1="61.000000000000014" x2="59.052558883257646" y2="39.0" stroke="#1d1d1f" stroke-width="1.4" fill="none"/>
<line x1="59.052558883257646" y1="39.0" x2="40.0" y2="28.0" stroke="#1d1d1f" stroke-width="1.4" fill="none"/>
<line x1="78.10511776651529" y1="28.0" x2="59.05255888325764" y2="39.0" stroke="#1d1d1f" stroke-width="1.4" fill="none"/>
<line x1="59.05255888325764" y1="39.0" x2="59.052558883257646" y2="61.0" stroke="#1d1d1f" stroke-width="1.4" fill="none"/>
<line x1="59.052558883257646" y1="61.0" x2="78.10511776651529" y2="72.0" stroke="#1d1d1f" stroke-width="1.4" fill="none"/>
<line x1="78.10511776651529" y1="72.0" x2="97.15767664977294" y2="61.000000000000014" stroke="#1d1d1f" stroke-width="1.4" fill="none"/>
<line x1="97.15767664977294" y1="61.000000000000014" x2="97.15767664977294" y2="39.0" stroke="#1d1d1f" stroke-width="1.4" fill="none"/>
<line x1="97.15767664977294" y1="39.0" x2="78.10511776651529" y2="28.0" stroke="#1d1d1f" stroke-width="1.4" fill="none"/>
<line x1="116.2102355330306" y1="28.0" x2="97.15767664977295" y2="39.0" stroke="#1d1d1f" stroke-width="1.4" fill="none"/>
<line x1="97.15767664977295" y1="39.0" x2="97.15767664977295" y2="61.0" stroke="#1d1d1f" stroke-width="1.4" fill="none"/>
<line x1="97.15767664977295" y1="61.0" x2="116.2102355330306" y2="72.0" stroke="#1d1d1f" stroke-width="1.4" fill="none"/>
<line x1="116.2102355330306" y1="72.0" x2="135.26279441628824" y2="61.000000000000014" stroke="#1d1d1f" stroke-width="1.4" fill="none"/>
<line x1="135.26279441628824" y1="61.000000000000014" x2="135.26279441628824" y2="39.0" stroke="#1d1d1f" stroke-width="1.4" fill="none"/>
<line x1="135.26279441628824" y1="39.0" x2="116.2102355330306" y2="28.0" stroke="#1d1d1f" stroke-width="1.4" fill="none"/>
</svg>