<svg xmlns="http://www.w3.org/2000/svg" viewBox="0 0 280 220" width="280" height="220">
<defs>
  <marker id="arrow" viewBox="0 0 10 10" refX="9" refY="5" markerWidth="7" markerHeight="7" orient="auto-start-reverse">
    <path d="M0,0 L10,5 L0,10 z" fill="#1d1d1f"/>
  </marker>
</defs>
<circle cx="175" cy="110" r="75" stroke="#1d1d1f" stroke-width="1.4" fill="none"/>
<circle cx="65" cy="110" r="35" stroke="#1d1d1f" stroke-width="1.4" fill="none"/>
<circle cx="100" cy="110" r="2.5" fill="#1d1d1f"/>
<text x="100" y="102" font-family="Times, Georgia, serif" font-style="italic" font-size="14" text-anchor="middle">G</text>
<line x1="212.5" y1="45.0480947161671" x2="100" y2="110" stroke="#1d1d1f" stroke-width="1.4" fill="none"/>
<line x1="212.5" y1="45.0480947161671" x2="223.20907072649044" y2="167.45333323392336" stroke="#1d1d1f" stroke-width="1.4" fill="none"/>
<line x1="104.52305344105687" y1="135.65151074942517" x2="100" y2="110" stroke="#1d1d1f" stroke-width="1.4" fill="none"/>
<line x1="107.02691597225126" y1="78.30363036944755" x2="100" y2="110" stroke="#1d1d1f" stroke-width="1.4" fill="none"/>
<line x1="47.50000000000001" y1="79.68911086754464" x2="100" y2="110" stroke="#1d1d1f" stroke-width="1.4" fill="none"/>
<line x1="47.50000000000001" y1="79.68911086754464" x2="38.18844449083577" y2="132.49756633902888" stroke="#1d1d1f" stroke-width="1.4" fill="none"/>
<line x1="38.18844449083577" y1="132.49756633902888" x2="100" y2="110" stroke="#1d1d1f" stroke-width="1.4" fill="none"/>
<circle cx="212.5" cy="45.0480947161671" r="2.5" fill="#1d1d1f"/>
<text x="222.5" y="37.0480947161671" font-family="Times, Georgia, serif" font-style="italic" font-size="14" text-anchor="start">F</text>
<circle cx="107.02691597225126" cy="78.30363036944755" r="2.5" fill="#1d1d1f"/>
<text x="107.02691597225126" y="70.30363036944755" font-family="Times, Georgia, serif" font-style="italic" font-size="14" text-anchor="middle">D</text>
<circle cx="223.20907072649044" cy="167.45333323392336" r="2.5" fill="#1d1d1f"/>
<text x="233.20907072649044" y="185.45333323392336" font-family="Times, Georgia, serif" font-style="italic" font-size="14" text-anchor="start">C</text>
<circle cx="104.52305344105687" cy="135.65151074942517" r="2.5" fill="#1d1d1f"/>
<text x="94.52305344105687" y="153.65151074942517" font-family="Times, Georgia, serif" font-style="italic" font-size="14" text-anchor="end">B</text>
<circle cx="47.50000000000001" cy="79.68911086754464" r="2.5" fill="#1d1d1f"/>
<text x="37.50000000000001" y="71.68911086754464" font-family="Times, Georgia, serif" font-style="italic" font-size="14" text-anchor="end">E</text>
<circle cx="38.18844449083577" cy="132.49756633902888" r="2.5" fill="#1d1d1f"/>
<text x="28.18844449083577" y="150.49756633902888" font-family="Times, Georgia, serif" font-style="italic" font-size="14" text-anchor="end">A</text>
</svg>