<svg xmlns="http://www.w3.org/2000/svg" viewBox="0 0 220 200" width="220" height="200">
<defs>
  <marker id="arrow" viewBox="0 0 10 10" refX="9" refY="5" markerWidth="7" markerHeight="7" orient="auto-start-reverse">
    <path d="M0,0 L10,5 L0,10 z" fill="#1d1d1f"/>
  </marker>
</defs>
<line x1="40" y1="40" x2="130" y2="40" stroke="#1d1d1f" stroke-width="1.4" fill="none"/>
<line x1="130" y1="40" x2="130" y2="130" stroke="#1d1d1f" stroke-width="1.4" fill="none"/>
<line x1="130" y1="130" x2="40" y2="130" stroke="#1d1d1f" stroke-width="1.4" fill="none"/>
<line x1="40" y1="130" x2="40" y2="40" stroke="#1d1d1f" stroke-width="1.4" fill="none"/>
<line x1="130" y1="40" x2="165" y2="8" stroke="#1d1d1f" stroke-width="1.4" fill="none"/>
<line x1="165" y1="8" x2="165" y2="98" stroke="#1d1d1f" stroke-width="1.4" fill="none"/>
<line x1="165" y1="98" x2="130" y2="130" stroke="#1d1d1f" stroke-width="1.4" fill="none"/>
<line x1="40" y1="40" x2="75" y2="8" stroke="#1d1d1f" stroke-width="1.4" fill="none"/>
<line x1="75" y1="8" x2="165" y2="8" stroke="#1d1d1f" stroke-width="1.4" fill="none"/>
<line x1="40" y1="130" x2="75" y2="98" stroke="#1d1d1f" stroke-width="1.2" stroke-dasharray="4,3" fill="none"/>
<line x1="75" y1="98" x2="75" y2="8" stroke="#1d1d1f" stroke-width="1.2" stroke-dasharray="4,3" fill="none"/>
<line x1="75" y1="98" x2="165" y2="98" stroke="#1d1d1f" stroke-width="1.2" stroke-dasharray="4,3" fill="none"/>
<line x1="40" y1="40" x2="130" y2="130" stroke="#1d1d1f" stroke-width="1.4" fill="none"/>
<line x1="75" y1="8" x2="130" y2="130" stroke="#1d1d1f" stroke-width="1.4" fill="none"/>
<path d="M 130.00 124.00 L 124.00 124.00 L 124.00 130.00" stroke="#1d1d1f" stroke-width="1.4" fill="none"/>
<circle cx="40" cy="40" r="2.5" fill="#1d1d1f"/>
<text x="30" y="32" font-family="Times, Georgia, serif" font-style="italic" font-size="14" text-anchor="end">A</text>
<circle cx="130" cy="40" r="2.5" fill="#1d1d1f"/>
<text x="130" y="32" font-family="Times, Georgia, serif" font-style="italic" font-size="14" text-anchor="middle">B</text>
<circle cx="130" cy="130" r="2.5" fill="#1d1d1f"/>
<text x="130" y="146" font-family="Times, Georgia, serif" font-style="italic" font-size="14" text-anchor="middle">C</text>
<circle cx="40" cy="130" r="2.5" fill="#1d1d1f"/>
<text x="30" y="148" font-family="Times, Georgia, serif" font-style="italic" font-size="14" text-anchor="end">D</text>
<circle cx="75" cy="8" r="2.5" fill="#1d1d1f"/>
<text x="65" y="0" font-family="Times, Georgia, serif" font-style="italic" font-size="14" text-anchor="end">E</text>
<circle cx="165" cy="8" r="2.5" fill="#1d1d1f"/>
<text x="175" y="0" font-family="Times, Georgia, serif" font-style="italic" font-size="14" text-anchor="start">F</text>
<circle cx="165" cy="98" r="2.5" fill="#1d1d1f"/>
<text x="177" y="102" font-family="Times, Georgia, serif" font-style="italic" font-size="14" text-anchor="start">G</text>
<circle cx="75" cy="98" r="2.5" fill="#1d1d1f"/>
<text x="85" y="90" font-family="Times, Georgia, serif" font-style="italic" font-size="14" text-anchor="start">H</text>
</svg>