<svg xmlns="http://www.w3.org/2000/svg" viewBox="0 0 240 130" width="240" height="130">
<defs>
  <marker id="arrow" viewBox="0 0 10 10" refX="9" refY="5" markerWidth="7" markerHeight="7" orient="auto-start-reverse">
    <path d="M0,0 L10,5 L0,10 z" fill="#1d1d1f"/>
  </marker>
</defs>
<line x1="35" y1="70" x2="25" y2="110" stroke="#1d1d1f" stroke-width="1.4" fill="none"/>
<line x1="25" y1="110" x2="90" y2="100" stroke="#1d1d1f" stroke-width="1.4" fill="none"/>
<line x1="35" y1="70" x2="90" y2="100" stroke="#1d1d1f" stroke-width="1.4" fill="none"/>
<line x1="130" y1="15" x2="120" y2="55" stroke="#1d1d1f" stroke-width="1.4" fill="none"/>
<line x1="120" y1="55" x2="185" y2="45" stroke="#1d1d1f" stroke-width="1.4" fill="none"/>
<line x1="130" y1="15" x2="185" y2="45" stroke="#1d1d1f" stroke-width="1.4" fill="none"/>
<circle cx="35" cy="70" r="2.5" fill="#1d1d1f"/>
<text x="25" y="62" font-family="Times, Georgia, serif" font-style="italic" font-size="14" text-anchor="end">A</text>
<circle cx="25" cy="110" r="2.5" fill="#1d1d1f"/>
<text x="15" y="128" font-family="Times, Georgia, serif" font-style="italic" font-size="14" text-anchor="end">B</text>
<circle cx="90" cy="100" r="2.5" fill="#1d1d1f"/>
<text x="102" y="104" font-family="Times, Georgia, serif" font-style="italic" font-size="14" text-anchor="start">C</text>
<circle cx="130" cy="15" r="2.5" fill="#1d1d1f"/>
<text x="130" y="7" font-family="Times, Georgia, serif" font-style="italic" font-size="14" text-anchor="middle">A'</text>
<circle cx="120" cy="55" r="2.5" fill="#1d1d1f"/>
<text x="110" y="73" font-family="Times, Georgia, serif" font-style="italic" font-size="14" text-anchor="end">B'</text>
<circle cx="185" cy="45" r="2.5" fill="#1d1d1f"/>
<text x="197" y="49" font-family="Times, Georgia, serif" font-style="italic" font-size="14" text-anchor="start">C'</text>
</svg>