<svg xmlns="http://www.w3.org/2000/svg" viewBox="0 0 220 160" width="220" height="160">
<defs>
  <marker id="arrow" viewBox="0 0 10 10" refX="9" refY="5" markerWidth="7" markerHeight="7" orient="auto-start-reverse">
    <path d="M0,0 L10,5 L0,10 z" fill="#1d1d1f"/>
  </marker>
</defs>
<line x1="25" y1="130" x2="110" y2="25" stroke="#1d1d1f" stroke-width="1.4" fill="none"/>
<line x1="110" y1="25" x2="200" y2="130" stroke="#1d1d1f" stroke-width="1.4" fill="none"/>
<line x1="25" y1="130" x2="200" y2="130" stroke="#1d1d1f" stroke-width="1.4" fill="none"/>
<line x1="25" y1="130" x2="146.0" y2="67.0" stroke="#1d1d1f" stroke-width="1.4" fill="none"/>
<line x1="200" y1="130" x2="84.5" y2="56.5" stroke="#1d1d1f" stroke-width="1.4" fill="none"/>
<line x1="146.0" y1="67.0" x2="95.0" y2="130.0" stroke="#1d1d1f" stroke-width="1.4" stroke-dasharray="3,3" fill="none"/>
<circle cx="25" cy="130" r="2.5" fill="#1d1d1f"/>
<text x="15" y="148" font-family="Times, Georgia, serif" font-style="italic" font-size="14" text-anchor="end">A</text>
<circle cx="110" cy="25" r="2.5" fill="#1d1d1f"/>
<text x="110" y="17" font-family="Times, Georgia, serif" font-style="italic" font-size="14" text-anchor="middle">B</text>
<circle cx="200" cy="130" r="2.5" fill="#1d1d1f"/>
<text x="210" y="148" font-family="Times, Georgia, serif" font-style="italic" font-size="14" text-anchor="start">C</text>
<circle cx="84.5" cy="56.5" r="2.5" fill="#1d1d1f"/>
<text x="74.5" y="48.5" font-family="Times, Georgia, serif" font-style="italic" font-size="14" text-anchor="end">E</text>
<circle cx="146.0" cy="67.0" r="2.5" fill="#1d1d1f"/>
<text x="156.0" y="59.0" font-family="Times, Georgia, serif" font-style="italic" font-size="14" text-anchor="start">D</text>
<circle cx="121.25" cy="79.88636363636364" r="2.5" fill="#1d1d1f"/>
<text x="121.25" y="95.88636363636364" font-family="Times, Georgia, serif" font-style="italic" font-size="14" text-anchor="middle">F</text>
<circle cx="95.0" cy="130.0" r="2.5" fill="#1d1d1f"/>
<text x="105.0" y="148.0" font-family="Times, Georgia, serif" font-style="italic" font-size="14" text-anchor="start">H</text>
<circle cx="130.7" cy="85.9" r="2.5" fill="#1d1d1f"/>
<text x="118.69999999999999" y="89.9" font-family="Times, Georgia, serif" font-style="italic" font-size="14" text-anchor="end">G</text>
</svg>