<svg xmlns="http://www.w3.org/2000/svg" viewBox="0 0 230 160" width="230" height="160">
<defs>
  <marker id="arrow" viewBox="0 0 10 10" refX="9" refY="5" markerWidth="7" markerHeight="7" orient="auto-start-reverse">
    <path d="M0,0 L10,5 L0,10 z" fill="#1d1d1f"/>
  </marker>
</defs>
<line x1="115" y1="25" x2="210" y2="130" stroke="#1d1d1f" stroke-width="1.4" fill="none"/>
<line x1="210" y1="130" x2="20" y2="130" stroke="#1d1d1f" stroke-width="1.4" fill="none"/>
<line x1="115" y1="25" x2="20" y2="130" stroke="#1d1d1f" stroke-width="1.4" fill="none"/>
<line x1="115" y1="25" x2="115.0" y2="130.0" stroke="#1d1d1f" stroke-width="1.4" fill="none"/>
<line x1="210" y1="130" x2="67.5" y2="77.5" stroke="#1d1d1f" stroke-width="1.4" fill="none"/>
<line x1="20" y1="130" x2="162.5" y2="77.5" stroke="#1d1d1f" stroke-width="1.4" fill="none"/>
<circle cx="115" cy="25" r="2.5" fill="#1d1d1f"/>
<text x="115" y="17" font-family="Times, Georgia, serif" font-style="italic" font-size="14" text-anchor="middle">A</text>
<circle cx="210" cy="130" r="2.5" fill="#1d1d1f"/>
<text x="220" y="148" font-family="Times, Georgia, serif" font-style="italic" font-size="14" text-anchor="start">B</text>
<circle cx="20" cy="130" r="2.5" fill="#1d1d1f"/>
<text x="10" y="148" font-family="Times, Georgia, serif" font-style="italic" font-size="14" text-anchor="end">C</text>
<circle cx="115.0" cy="130.0" r="2.5" fill="#1d1d1f"/>
<text x="115.0" y="146.0" font-family="Times, Georgia, serif" font-style="italic" font-size="14" text-anchor="middle">D</text>
<circle cx="67.5" cy="77.5" r="2.5" fill="#1d1d1f"/>
<text x="77.5" y="69.5" font-family="Times, Georgia, serif" font-style="italic" font-size="14" text-anchor="start">E</text>
<circle cx="162.5" cy="77.5" r="2.5" fill="#1d1d1f"/>
<text x="152.5" y="69.5" font-family="Times, Georgia, serif" font-style="italic" font-size="14" text-anchor="end">F</text>
<text x="127.0" y="99.0" font-family="Times, Georgia, serif" font-style="italic" font-size="14" text-anchor="start">G</text>
</svg>