<svg xmlns="http://www.w3.org/2000/svg" viewBox="0 0 200 200" width="200" height="200">
<defs>
  <marker id="arrow" viewBox="0 0 10 10" refX="9" refY="5" markerWidth="7" markerHeight="7" orient="auto-start-reverse">
    <path d="M0,0 L10,5 L0,10 z" fill="#1d1d1f"/>
  </marker>
</defs>
<line x1="40" y1="160" x2="160" y2="160" stroke="#1d1d1f" stroke-width="1.4" fill="none"/>
<line x1="160" y1="160" x2="160" y2="40" stroke="#1d1d1f" stroke-width="1.4" fill="none"/>
<line x1="160" y1="40" x2="40" y2="40" stroke="#1d1d1f" stroke-width="1.4" fill="none"/>
<line x1="40" y1="40" x2="40" y2="160" stroke="#1d1d1f" stroke-width="1.4" fill="none"/>
<line x1="40" y1="160" x2="90.0" y2="40" stroke="#1d1d1f" stroke-width="1.4" fill="none"/>
<line x1="40.0" y1="89.58333333333331" x2="160.0" y2="139.58333333333334" stroke="#1d1d1f" stroke-width="1.4" fill="none"/>
<path d="M 59.46 97.69 L 57.15 103.23 L 62.69 105.54" stroke="#1d1d1f" stroke-width="1.4" fill="none"/>
<circle cx="40" cy="160" r="2.5" fill="#1d1d1f"/>
<text x="30" y="178" font-family="Times, Georgia, serif" font-style="italic" font-size="14" text-anchor="end">A</text>
<circle cx="160" cy="160" r="2.5" fill="#1d1d1f"/>
<text x="170" y="178" font-family="Times, Georgia, serif" font-style="italic" font-size="14" text-anchor="start">B</text>
<circle cx="160" cy="40" r="2.5" fill="#1d1d1f"/>
<text x="170" y="32" font-family="Times, Georgia, serif" font-style="italic" font-size="14" text-anchor="start">C</text>
<circle cx="40" cy="40" r="2.5" fill="#1d1d1f"/>
<text x="30" y="32" font-family="Times, Georgia, serif" font-style="italic" font-size="14" text-anchor="end">D</text>
<circle cx="90.0" cy="40" r="2.5" fill="#1d1d1f"/>
<text x="90.0" y="32" font-family="Times, Georgia, serif" font-style="italic" font-size="14" text-anchor="middle">E</text>
<text x="77.0" y="104.0" font-family="Times, Georgia, serif" font-style="italic" font-size="14" text-anchor="start">M</text>
<text x="28.0" y="93.58333333333331" font-family="Times, Georgia, serif" font-style="italic" font-size="14" text-anchor="end">P</text>
<text x="172.0" y="143.58333333333334" font-family="Times, Georgia, serif" font-style="italic" font-size="14" text-anchor="start">Q</text>
</svg>