<svg xmlns="http://www.w3.org/2000/svg" viewBox="0 0 220 230" width="220" height="230">
<defs>
  <marker id="arrow" viewBox="0 0 10 10" refX="9" refY="5" markerWidth="7" markerHeight="7" orient="auto-start-reverse">
    <path d="M0,0 L10,5 L0,10 z" fill="#1d1d1f"/>
  </marker>
</defs>
<circle cx="110" cy="130" r="80" stroke="#1d1d1f" stroke-width="1.4" fill="none"/>
<line x1="110" y1="50" x2="32.72593389687454" y2="150.70552360820167" stroke="#1d1d1f" stroke-width="1.4" fill="none"/>
<line x1="110" y1="50" x2="179.2820323027551" y2="170.0" stroke="#1d1d1f" stroke-width="1.4" fill="none"/>
<line x1="32.72593389687454" y1="150.70552360820167" x2="179.2820323027551" y2="170.0" stroke="#1d1d1f" stroke-width="1.4" fill="none"/>
<line x1="110" y1="130" x2="32.72593389687454" y2="150.70552360820167" stroke="#1d1d1f" stroke-width="1.4" fill="none"/>
<line x1="110" y1="130" x2="179.2820323027551" y2="170.0" stroke="#1d1d1f" stroke-width="1.4" fill="none"/>
<circle cx="110" cy="130" r="2.5" fill="#1d1d1f"/>
<text x="110" y="146" font-family="Times, Georgia, serif" font-style="italic" font-size="14" text-anchor="middle">O</text>
<circle cx="110" cy="50" r="2.5" fill="#1d1d1f"/>
<text x="110" y="42" font-family="Times, Georgia, serif" font-style="italic" font-size="14" text-anchor="middle">C</text>
<circle cx="32.72593389687454" cy="150.70552360820167" r="2.5" fill="#1d1d1f"/>
<text x="20.725933896874537" y="154.70552360820167" font-family="Times, Georgia, serif" font-style="italic" font-size="14" text-anchor="end">A</text>
<circle cx="179.2820323027551" cy="170.0" r="2.5" fill="#1d1d1f"/>
<text x="191.2820323027551" y="174.0" font-family="Times, Georgia, serif" font-style="italic" font-size="14" text-anchor="start">B</text>
<text x="104" y="68" font-family="Times, Georgia, serif" font-style="italic" font-size="11" text-anchor="middle">x</text>
<text x="116" y="68" font-family="Times, Georgia, serif" font-style="italic" font-size="11" text-anchor="middle">y</text>
<text x="167.2820323027551" y="166.0" font-family="Times, Georgia, serif" font-style="italic" font-size="11" text-anchor="middle">z</text>
<text x="46.72593389687454" y="146.70552360820167" font-family="Times, Georgia, serif" font-style="italic" font-size="11" text-anchor="middle">θ</text>
<text x="104" y="144" font-family="Times, Georgia, serif" font-style="italic" font-size="11" text-anchor="middle">φ</text>
</svg>