<svg xmlns="http://www.w3.org/2000/svg" viewBox="0 0 230 160" width="230" height="160">
<defs>
  <marker id="arrow" viewBox="0 0 10 10" refX="9" refY="5" markerWidth="7" markerHeight="7" orient="auto-start-reverse">
    <path d="M0,0 L10,5 L0,10 z" fill="#1d1d1f"/>
  </marker>
</defs>
<line x1="75" y1="35" x2="175" y2="55" stroke="#1d1d1f" stroke-width="1.4" fill="none"/>
<line x1="175" y1="55" x2="165" y2="130" stroke="#1d1d1f" stroke-width="1.4" fill="none"/>
<line x1="165" y1="130" x2="35" y2="110" stroke="#1d1d1f" stroke-width="1.4" fill="none"/>
<line x1="35" y1="110" x2="75" y2="35" stroke="#1d1d1f" stroke-width="1.4" fill="none"/>
<line x1="75" y1="35" x2="165" y2="130" stroke="#1d1d1f" stroke-width="1.4" fill="none"/>
<line x1="175" y1="55" x2="35" y2="110" stroke="#1d1d1f" stroke-width="1.4" fill="none"/>
<line x1="175" y1="55" x2="132.28467153284672" y2="95.46715328467154" stroke="#1d1d1f" stroke-width="1.4" fill="none"/>
<line x1="35" y1="110" x2="93.52554744525547" y2="54.55474452554745" stroke="#1d1d1f" stroke-width="1.4" fill="none"/>
<path d="M 128.16 91.11 L 132.51 86.98 L 136.64 91.34" stroke="#1d1d1f" stroke-width="1.4" fill="none"/>
<path d="M 97.65 58.91 L 93.30 63.04 L 89.17 58.68" stroke="#1d1d1f" stroke-width="1.4" fill="none"/>
<line x1="141.82826186211497" y1="73.40375746720173" x2="138.17173813788503" y2="64.09624253279827" stroke="#1d1d1f" stroke-width="1.4" fill="none"/>
<line x1="71.82826186211497" y1="100.90375746720173" x2="68.17173813788503" y2="91.59624253279827" stroke="#1d1d1f" stroke-width="1.4" fill="none"/>
<circle cx="75" cy="35" r="2.5" fill="#1d1d1f"/>
<text x="75" y="27" font-family="Times, Georgia, serif" font-style="italic" font-size="14" text-anchor="middle">A</text>
<circle cx="175" cy="55" r="2.5" fill="#1d1d1f"/>
<text x="187" y="59" font-family="Times, Georgia, serif" font-style="italic" font-size="14" text-anchor="start">B</text>
<circle cx="35" cy="110" r="2.5" fill="#1d1d1f"/>
<text x="23" y="114" font-family="Times, Georgia, serif" font-style="italic" font-size="14" text-anchor="end">D</text>
<circle cx="165" cy="130" r="2.5" fill="#1d1d1f"/>
<text x="175" y="148" font-family="Times, Georgia, serif" font-style="italic" font-size="14" text-anchor="start">C</text>
<text x="105.0" y="98.5" font-family="Times, Georgia, serif" font-style="italic" font-size="14" text-anchor="middle">X</text>
<text x="132.28467153284672" y="111.46715328467154" font-family="Times, Georgia, serif" font-style="italic" font-size="14" text-anchor="middle">Y</text>
<text x="93.52554744525547" y="46.55474452554745" font-family="Times, Georgia, serif" font-style="italic" font-size="14" text-anchor="middle">Z</text>
</svg>