<svg xmlns="http://www.w3.org/2000/svg" viewBox="0 0 240 130" width="240" height="130">
<defs>
  <marker id="arrow" viewBox="0 0 10 10" refX="9" refY="5" markerWidth="7" markerHeight="7" orient="auto-start-reverse">
    <path d="M0,0 L10,5 L0,10 z" fill="#1d1d1f"/>
  </marker>
</defs>
<line x1="30" y1="30" x2="210" y2="30" stroke="#1d1d1f" stroke-width="1.4" fill="none"/>
<line x1="210" y1="30" x2="210" y2="100" stroke="#1d1d1f" stroke-width="1.4" fill="none"/>
<line x1="210" y1="100" x2="30" y2="100" stroke="#1d1d1f" stroke-width="1.4" fill="none"/>
<line x1="30" y1="100" x2="30" y2="30" stroke="#1d1d1f" stroke-width="1.4" fill="none"/>
<path d="M 37.00 30.00 L 37.00 37.00 L 30.00 37.00" stroke="#1d1d1f" stroke-width="1.4" fill="none"/>
<path d="M 203.00 30.00 L 203.00 37.00 L 210.00 37.00" stroke="#1d1d1f" stroke-width="1.4" fill="none"/>
<path d="M 203.00 100.00 L 203.00 93.00 L 210.00 93.00" stroke="#1d1d1f" stroke-width="1.4" fill="none"/>
<path d="M 37.00 100.00 L 37.00 93.00 L 30.00 93.00" stroke="#1d1d1f" stroke-width="1.4" fill="none"/>
<line x1="120.0" y1="25.0" x2="120.0" y2="35.0" stroke="#1d1d1f" stroke-width="1.4" fill="none"/>
<line x1="120.0" y1="95.0" x2="120.0" y2="105.0" stroke="#1d1d1f" stroke-width="1.4" fill="none"/>
<line x1="215.0" y1="63.0" x2="205.0" y2="63.0" stroke="#1d1d1f" stroke-width="1.4" fill="none"/>
<line x1="215.0" y1="67.0" x2="205.0" y2="67.0" stroke="#1d1d1f" stroke-width="1.4" fill="none"/>
<line x1="35.0" y1="63.0" x2="25.0" y2="63.0" stroke="#1d1d1f" stroke-width="1.4" fill="none"/>
<line x1="35.0" y1="67.0" x2="25.0" y2="67.0" stroke="#1d1d1f" stroke-width="1.4" fill="none"/>
<circle cx="30" cy="30" r="2.5" fill="#1d1d1f"/>
<text x="20" y="22" font-family="Times, Georgia, serif" font-style="italic" font-size="14" text-anchor="end">A</text>
<circle cx="210" cy="30" r="2.5" fill="#1d1d1f"/>
<text x="220" y="22" font-family="Times, Georgia, serif" font-style="italic" font-size="14" text-anchor="start">B</text>
<circle cx="210" cy="100" r="2.5" fill="#1d1d1f"/>
<text x="220" y="118" font-family="Times, Georgia, serif" font-style="italic" font-size="14" text-anchor="start">C</text>
<circle cx="30" cy="100" r="2.5" fill="#1d1d1f"/>
<text x="20" y="118" font-family="Times, Georgia, serif" font-style="italic" font-size="14" text-anchor="end">D</text>
</svg>