<svg xmlns="http://www.w3.org/2000/svg" viewBox="0 0 240 200" width="240" height="200">
<defs>
  <marker id="arrow" viewBox="0 0 10 10" refX="9" refY="5" markerWidth="7" markerHeight="7" orient="auto-start-reverse">
    <path d="M0,0 L10,5 L0,10 z" fill="#1d1d1f"/>
  </marker>
</defs>
<line x1="80" y1="60" x2="160" y2="60" stroke="#1d1d1f" stroke-width="1.4" fill="none"/>
<line x1="160" y1="60" x2="200" y2="160" stroke="#1d1d1f" stroke-width="1.4" fill="none"/>
<line x1="200" y1="160" x2="40" y2="160" stroke="#1d1d1f" stroke-width="1.4" fill="none"/>
<line x1="40" y1="160" x2="80" y2="60" stroke="#1d1d1f" stroke-width="1.4" fill="none"/>
<line x1="80" y1="60" x2="200" y2="160" stroke="#1d1d1f" stroke-width="1.4" fill="none"/>
<line x1="160" y1="60" x2="40" y2="160" stroke="#1d1d1f" stroke-width="1.4" fill="none"/>
<line x1="100.0" y1="76.66666666666666" x2="80.0" y2="126.66666666666666" stroke="#1d1d1f" stroke-width="1.4" fill="none"/>
<line x1="80.0" y1="126.66666666666666" x2="180.0" y2="110.0" stroke="#1d1d1f" stroke-width="1.4" fill="none"/>
<line x1="100.0" y1="76.66666666666666" x2="180.0" y2="110.0" stroke="#1d1d1f" stroke-width="1.4" fill="none"/>
<circle cx="80" cy="60" r="2.5" fill="#1d1d1f"/>
<text x="70" y="52" font-family="Times, Georgia, serif" font-style="italic" font-size="14" text-anchor="end">A</text>
<circle cx="160" cy="60" r="2.5" fill="#1d1d1f"/>
<text x="170" y="52" font-family="Times, Georgia, serif" font-style="italic" font-size="14" text-anchor="start">B</text>
<circle cx="100.0" cy="76.66666666666666" r="2.5" fill="#1d1d1f"/>
<text x="90.0" y="68.66666666666666" font-family="Times, Georgia, serif" font-style="italic" font-size="14" text-anchor="end">M</text>
<circle cx="120.0" cy="93.33333333333333" r="2.5" fill="#1d1d1f"/>
<text x="130.0" y="85.33333333333333" font-family="Times, Georgia, serif" font-style="italic" font-size="14" text-anchor="start">O</text>
<circle cx="180.0" cy="110.0" r="2.5" fill="#1d1d1f"/>
<text x="192.0" y="114.0" font-family="Times, Georgia, serif" font-style="italic" font-size="14" text-anchor="start">P</text>
<circle cx="80.0" cy="126.66666666666666" r="2.5" fill="#1d1d1f"/>
<text x="70.0" y="144.66666666666666" font-family="Times, Georgia, serif" font-style="italic" font-size="14" text-anchor="end">N</text>
<circle cx="40" cy="160" r="2.5" fill="#1d1d1f"/>
<text x="30" y="178" font-family="Times, Georgia, serif" font-style="italic" font-size="14" text-anchor="end">D</text>
<circle cx="200" cy="160" r="2.5" fill="#1d1d1f"/>
<text x="210" y="178" font-family="Times, Georgia, serif" font-style="italic" font-size="14" text-anchor="start">C</text>
</svg>