<svg xmlns="http://www.w3.org/2000/svg" viewBox="0 0 220 160" width="220" height="160">
<defs>
  <marker id="arrow" viewBox="0 0 10 10" refX="9" refY="5" markerWidth="7" markerHeight="7" orient="auto-start-reverse">
    <path d="M0,0 L10,5 L0,10 z" fill="#1d1d1f"/>
  </marker>
</defs>
<line x1="25" y1="130" x2="110" y2="25" stroke="#1d1d1f" stroke-width="1.4" fill="none"/>
<line x1="110" y1="25" x2="200" y2="130" stroke="#1d1d1f" stroke-width="1.4" fill="none"/>
<line x1="25" y1="130" x2="200" y2="130" stroke="#1d1d1f" stroke-width="1.4" fill="none"/>
<line x1="25" y1="130" x2="115" y2="90" stroke="#1d1d1f" stroke-width="1.4" fill="none"/>
<line x1="200" y1="130" x2="115" y2="90" stroke="#1d1d1f" stroke-width="1.4" fill="none"/>
<line x1="110" y1="25" x2="115" y2="90" stroke="#1d1d1f" stroke-width="1.4" fill="none"/>
<text x="107" y="47" font-family="Times, Georgia, serif" font-style="italic" font-size="11" text-anchor="middle">z</text>
<text x="120" y="55" font-family="Times, Georgia, serif" font-style="italic" font-size="11" text-anchor="middle">w</text>
<text x="43" y="127" font-family="Times, Georgia, serif" font-style="italic" font-size="11" text-anchor="middle">y</text>
<text x="182" y="127" font-family="Times, Georgia, serif" font-style="italic" font-size="11" text-anchor="middle">x</text>
<circle cx="25" cy="130" r="2.5" fill="#1d1d1f"/>
<text x="15" y="148" font-family="Times, Georgia, serif" font-style="italic" font-size="14" text-anchor="end">A</text>
<circle cx="110" cy="25" r="2.5" fill="#1d1d1f"/>
<text x="110" y="17" font-family="Times, Georgia, serif" font-style="italic" font-size="14" text-anchor="middle">B</text>
<circle cx="200" cy="130" r="2.5" fill="#1d1d1f"/>
<text x="210" y="148" font-family="Times, Georgia, serif" font-style="italic" font-size="14" text-anchor="start">C</text>
<circle cx="115" cy="90" r="2.5" fill="#1d1d1f"/>
<text x="115" y="106" font-family="Times, Georgia, serif" font-style="italic" font-size="14" text-anchor="middle">D</text>
</svg>