<svg xmlns="http://www.w3.org/2000/svg" viewBox="0 0 620 130" width="620" height="130">
<defs>
  <marker id="arrow" viewBox="0 0 10 10" refX="9" refY="5" markerWidth="7" markerHeight="7" orient="auto-start-reverse">
    <path d="M0,0 L10,5 L0,10 z" fill="#1d1d1f"/>
  </marker>
</defs>
<line x1="18.0" y1="90" x2="88.0" y2="90" stroke="#1d1d1f" stroke-width="1.4" fill="none"/>
<line x1="18.0" y1="90" x2="53.0" y2="30" stroke="#1d1d1f" stroke-width="1.4" fill="none"/>
<line x1="53.0" y1="30" x2="88.0" y2="90" stroke="#1d1d1f" stroke-width="1.4" fill="none"/>
<text x="53.0" y="115" font-family="Times, Georgia, serif" font-style="italic" font-size="12" text-anchor="middle">acute</text>
<line x1="121.33333333333333" y1="90" x2="191.33333333333331" y2="90" stroke="#1d1d1f" stroke-width="1.4" fill="none"/>
<line x1="121.33333333333333" y1="90" x2="121.33333333333333" y2="30" stroke="#1d1d1f" stroke-width="1.4" fill="none"/>
<line x1="121.33333333333333" y1="30" x2="191.33333333333331" y2="90" stroke="#1d1d1f" stroke-width="1.4" fill="none"/>
<path d="M 129.33 90.00 L 129.33 82.00 L 121.33 82.00" stroke="#1d1d1f" stroke-width="1.4" fill="none"/>
<text x="156.33333333333331" y="115" font-family="Times, Georgia, serif" font-style="italic" font-size="12" text-anchor="middle">right</text>
<line x1="224.66666666666666" y1="90" x2="314.66666666666663" y2="90" stroke="#1d1d1f" stroke-width="1.4" fill="none"/>
<line x1="224.66666666666666" y1="90" x2="289.66666666666663" y2="50" stroke="#1d1d1f" stroke-width="1.4" fill="none"/>
<line x1="289.66666666666663" y1="50" x2="314.66666666666663" y2="90" stroke="#1d1d1f" stroke-width="1.4" fill="none"/>
<text x="259.66666666666663" y="115" font-family="Times, Georgia, serif" font-style="italic" font-size="12" text-anchor="middle">obtuse</text>
<line x1="328.0" y1="90" x2="403.0" y2="90" stroke="#1d1d1f" stroke-width="1.4" fill="none"/>
<line x1="328.0" y1="90" x2="350.0" y2="35" stroke="#1d1d1f" stroke-width="1.4" fill="none"/>
<line x1="350.0" y1="35" x2="403.0" y2="90" stroke="#1d1d1f" stroke-width="1.4" fill="none"/>
<text x="363.0" y="115" font-family="Times, Georgia, serif" font-style="italic" font-size="12" text-anchor="middle">scalene</text>
<line x1="431.3333333333333" y1="90" x2="491.3333333333333" y2="90" stroke="#1d1d1f" stroke-width="1.4" fill="none"/>
<line x1="431.3333333333333" y1="90" x2="461.3333333333333" y2="35" stroke="#1d1d1f" stroke-width="1.4" fill="none"/>
<line x1="461.3333333333333" y1="35" x2="491.3333333333333" y2="90" stroke="#1d1d1f" stroke-width="1.4" fill="none"/>
<text x="466.3333333333333" y="115" font-family="Times, Georgia, serif" font-style="italic" font-size="12" text-anchor="middle">isosceles</text>
<line x1="534.6666666666666" y1="90" x2="594.6666666666666" y2="90" stroke="#1d1d1f" stroke-width="1.4" fill="none"/>
<line x1="534.6666666666666" y1="90" x2="564.6666666666666" y2="38.04" stroke="#1d1d1f" stroke-width="1.4" fill="none"/>
<line x1="564.6666666666666" y1="38.04" x2="594.6666666666666" y2="90" stroke="#1d1d1f" stroke-width="1.4" fill="none"/>
<text x="569.6666666666666" y="115" font-family="Times, Georgia, serif" font-style="italic" font-size="12" text-anchor="middle">equilateral</text>
</svg>