<svg xmlns="http://www.w3.org/2000/svg" viewBox="0 0 180 180" width="180" height="180">
<defs>
  <marker id="arrow" viewBox="0 0 10 10" refX="9" refY="5" markerWidth="7" markerHeight="7" orient="auto-start-reverse">
    <path d="M0,0 L10,5 L0,10 z" fill="#1d1d1f"/>
  </marker>
</defs>
<circle cx="90" cy="90" r="70" stroke="#1d1d1f" stroke-width="1.4" fill="none"/>
<line x1="90.0" y1="20.0" x2="150.62177826491072" y2="55.00000000000001" stroke="#1d1d1f" stroke-width="1.4" fill="none"/>
<line x1="90.0" y1="20.0" x2="150.62177826491072" y2="125.0" stroke="#1d1d1f" stroke-width="1.4" fill="none"/>
<line x1="90.0" y1="20.0" x2="90.0" y2="160.0" stroke="#1d1d1f" stroke-width="1.4" fill="none"/>
<line x1="90.0" y1="20.0" x2="29.37822173508929" y2="125.0" stroke="#1d1d1f" stroke-width="1.4" fill="none"/>
<line x1="90.0" y1="20.0" x2="29.378221735089298" y2="54.99999999999999" stroke="#1d1d1f" stroke-width="1.4" fill="none"/>
<line x1="150.62177826491072" y1="55.00000000000001" x2="150.62177826491072" y2="125.0" stroke="#1d1d1f" stroke-width="1.4" fill="none"/>
<line x1="150.62177826491072" y1="55.00000000000001" x2="90.0" y2="160.0" stroke="#1d1d1f" stroke-width="1.4" fill="none"/>
<line x1="150.62177826491072" y1="55.00000000000001" x2="29.37822173508929" y2="125.0" stroke="#1d1d1f" stroke-width="1.4" fill="none"/>
<line x1="150.62177826491072" y1="55.00000000000001" x2="29.378221735089298" y2="54.99999999999999" stroke="#1d1d1f" stroke-width="1.4" fill="none"/>
<line x1="150.62177826491072" y1="125.0" x2="90.0" y2="160.0" stroke="#1d1d1f" stroke-width="1.4" fill="none"/>
<line x1="150.62177826491072" y1="125.0" x2="29.37822173508929" y2="125.0" stroke="#1d1d1f" stroke-width="1.4" fill="none"/>
<line x1="150.62177826491072" y1="125.0" x2="29.378221735089298" y2="54.99999999999999" stroke="#1d1d1f" stroke-width="1.4" fill="none"/>
<line x1="90.0" y1="160.0" x2="29.37822173508929" y2="125.0" stroke="#1d1d1f" stroke-width="1.4" fill="none"/>
<line x1="90.0" y1="160.0" x2="29.378221735089298" y2="54.99999999999999" stroke="#1d1d1f" stroke-width="1.4" fill="none"/>
<line x1="29.37822173508929" y1="125.0" x2="29.378221735089298" y2="54.99999999999999" stroke="#1d1d1f" stroke-width="1.4" fill="none"/>
<circle cx="90.0" cy="20.0" r="2.5" fill="#1d1d1f"/>
<circle cx="150.62177826491072" cy="55.00000000000001" r="2.5" fill="#1d1d1f"/>
<circle cx="150.62177826491072" cy="125.0" r="2.5" fill="#1d1d1f"/>
<circle cx="90.0" cy="160.0" r="2.5" fill="#1d1d1f"/>
<circle cx="29.37822173508929" cy="125.0" r="2.5" fill="#1d1d1f"/>
<circle cx="29.378221735089298" cy="54.99999999999999" r="2.5" fill="#1d1d1f"/>
</svg>