<svg xmlns="http://www.w3.org/2000/svg" viewBox="0 0 200 200" width="200" height="200">
<defs>
  <marker id="arrow" viewBox="0 0 10 10" refX="9" refY="5" markerWidth="7" markerHeight="7" orient="auto-start-reverse">
    <path d="M0,0 L10,5 L0,10 z" fill="#1d1d1f"/>
  </marker>
</defs>
<circle cx="100" cy="100" r="70" stroke="#1d1d1f" stroke-width="1.4" fill="none"/>
<line x1="76.05858996720319" y1="34.221516544986414" x2="170.0" y2="100.0" stroke="#1d1d1f" stroke-width="1.4" fill="none"/>
<line x1="170.0" y1="100.0" x2="153.62311101832844" y2="144.99513267805776" stroke="#1d1d1f" stroke-width="1.4" fill="none"/>
<line x1="76.05858996720319" y1="34.221516544986414" x2="153.62311101832844" y2="144.99513267805776" stroke="#1d1d1f" stroke-width="1.4" fill="none"/>
<line x1="76.0585899672032" y1="165.7784834550136" x2="170.0" y2="100.0" stroke="#1d1d1f" stroke-width="1.4" fill="none"/>
<line x1="170.0" y1="100.0" x2="153.62311101832847" y2="55.00486732194225" stroke="#1d1d1f" stroke-width="1.4" fill="none"/>
<line x1="76.0585899672032" y1="165.7784834550136" x2="153.62311101832847" y2="55.00486732194225" stroke="#1d1d1f" stroke-width="1.4" fill="none"/>
<circle cx="76.05858996720319" cy="34.221516544986414" r="2.5" fill="#1d1d1f"/>
<text x="76.05858996720319" y="26.221516544986414" font-family="Times, Georgia, serif" font-style="italic" font-size="14" text-anchor="middle">R</text>
<circle cx="153.62311101832847" cy="55.00486732194225" r="2.5" fill="#1d1d1f"/>
<text x="163.62311101832847" y="47.00486732194225" font-family="Times, Georgia, serif" font-style="italic" font-size="14" text-anchor="start">V</text>
<circle cx="170.0" cy="100.0" r="2.5" fill="#1d1d1f"/>
<text x="182.0" y="104.0" font-family="Times, Georgia, serif" font-style="italic" font-size="14" text-anchor="start">T</text>
<circle cx="153.62311101832844" cy="144.99513267805776" r="2.5" fill="#1d1d1f"/>
<text x="163.62311101832844" y="162.99513267805776" font-family="Times, Georgia, serif" font-style="italic" font-size="14" text-anchor="start">S</text>
<circle cx="76.0585899672032" cy="165.7784834550136" r="2.5" fill="#1d1d1f"/>
<text x="76.0585899672032" y="181.7784834550136" font-family="Times, Georgia, serif" font-style="italic" font-size="14" text-anchor="middle">U</text>
<text x="110.11717993440638" y="104.00000000000003" font-family="Times, Georgia, serif" font-style="italic" font-size="14" text-anchor="end">Q</text>
</svg>