<svg xmlns="http://www.w3.org/2000/svg" viewBox="0 0 200 160" width="200" height="160">
<defs>
  <marker id="arrow" viewBox="0 0 10 10" refX="9" refY="5" markerWidth="7" markerHeight="7" orient="auto-start-reverse">
    <path d="M0,0 L10,5 L0,10 z" fill="#1d1d1f"/>
  </marker>
</defs>
<line x1="30" y1="130" x2="170" y2="30" stroke="#1d1d1f" stroke-width="1.4" fill="none"/>
<line x1="30" y1="130" x2="170" y2="130" stroke="#1d1d1f" stroke-width="1.4" fill="none"/>
<line x1="170" y1="130" x2="170" y2="30" stroke="#1d1d1f" stroke-width="1.4" fill="none"/>
<line x1="107.0" y1="75.0" x2="107.0" y2="130" stroke="#1d1d1f" stroke-width="1.4" fill="none"/>
<path d="M 170.00 124.00 L 164.00 124.00 L 164.00 130.00" stroke="#1d1d1f" stroke-width="1.4" fill="none"/>
<path d="M 107.00 124.00 L 113.00 124.00 L 113.00 130.00" stroke="#1d1d1f" stroke-width="1.4" fill="none"/>
<circle cx="30" cy="130" r="2.5" fill="#1d1d1f"/>
<text x="20" y="148" font-family="Times, Georgia, serif" font-style="italic" font-size="14" text-anchor="end">A</text>
<circle cx="107.0" cy="75.0" r="2.5" fill="#1d1d1f"/>
<text x="107.0" y="67.0" font-family="Times, Georgia, serif" font-style="italic" font-size="14" text-anchor="middle">B</text>
<circle cx="170" cy="30" r="2.5" fill="#1d1d1f"/>
<text x="180" y="22" font-family="Times, Georgia, serif" font-style="italic" font-size="14" text-anchor="start">C</text>
<circle cx="170" cy="130" r="2.5" fill="#1d1d1f"/>
<text x="180" y="148" font-family="Times, Georgia, serif" font-style="italic" font-size="14" text-anchor="start">D</text>
<circle cx="107.0" cy="130" r="2.5" fill="#1d1d1f"/>
<text x="107.0" y="146" font-family="Times, Georgia, serif" font-style="italic" font-size="14" text-anchor="middle">E</text>
</svg>