<svg xmlns="http://www.w3.org/2000/svg" viewBox="0 0 160 160" width="160" height="160">
<defs>
  <marker id="arrow" viewBox="0 0 10 10" refX="9" refY="5" markerWidth="7" markerHeight="7" orient="auto-start-reverse">
    <path d="M0,0 L10,5 L0,10 z" fill="#1d1d1f"/>
  </marker>
</defs>
<rect x="20" y="20" width="120" height="120" stroke="#1d1d1f" stroke-width="1.4" fill="none"/>
<path d="M 20 20 A 60.0 60.0 0 0 1 80.0 80.0 A 60.0 60.0 0 0 1 20 20 Z" fill="#1d1d1f"/>
<path d="M 140 140 A 60.0 60.0 0 0 1 80.0 80.0 A 60.0 60.0 0 0 1 140 140 Z" fill="#1d1d1f"/>
<path d="M 140 20 A 60.0 60.0 0 0 0 80.0 80.0 A 60.0 60.0 0 0 0 140 20 Z" fill="#1d1d1f"/>
<path d="M 20 140 A 60.0 60.0 0 0 0 80.0 80.0 A 60.0 60.0 0 0 0 20 140 Z" fill="#1d1d1f"/>
</svg>