<svg xmlns="http://www.w3.org/2000/svg" viewBox="0 0 240 170" width="240" height="170">
<defs>
  <marker id="arrow" viewBox="0 0 10 10" refX="9" refY="5" markerWidth="7" markerHeight="7" orient="auto-start-reverse">
    <path d="M0,0 L10,5 L0,10 z" fill="#1d1d1f"/>
  </marker>
</defs>
<line x1="25" y1="145" x2="60" y2="25" stroke="#1d1d1f" stroke-width="1.4" fill="none"/>
<line x1="60" y1="25" x2="180" y2="25" stroke="#1d1d1f" stroke-width="1.4" fill="none"/>
<line x1="180" y1="25" x2="215" y2="145" stroke="#1d1d1f" stroke-width="1.4" fill="none"/>
<line x1="215" y1="145" x2="25" y2="145" stroke="#1d1d1f" stroke-width="1.4" fill="none"/>
<line x1="25" y1="145" x2="120" y2="95" stroke="#1d1d1f" stroke-width="1.4" fill="none"/>
<line x1="25" y1="145" x2="120" y2="60" stroke="#1d1d1f" stroke-width="1.4" fill="none"/>
<line x1="215" y1="145" x2="120" y2="95" stroke="#1d1d1f" stroke-width="1.4" fill="none"/>
<line x1="215" y1="145" x2="120" y2="60" stroke="#1d1d1f" stroke-width="1.4" fill="none"/>
<text x="43" y="142" font-family="Times, Georgia, serif" font-style="italic" font-size="10" text-anchor="middle">x</text>
<text x="49" y="132" font-family="Times, Georgia, serif" font-style="italic" font-size="10" text-anchor="middle">x</text>
<text x="43" y="119" font-family="Times, Georgia, serif" font-style="italic" font-size="10" text-anchor="middle">x</text>
<text x="197" y="142" font-family="Times, Georgia, serif" font-style="italic" font-size="10" text-anchor="middle">y</text>
<text x="191" y="132" font-family="Times, Georgia, serif" font-style="italic" font-size="10" text-anchor="middle">y</text>
<text x="197" y="119" font-family="Times, Georgia, serif" font-style="italic" font-size="10" text-anchor="middle">y</text>
<circle cx="60" cy="25" r="2.5" fill="#1d1d1f"/>
<text x="60" y="17" font-family="Times, Georgia, serif" font-style="italic" font-size="14" text-anchor="middle">B</text>
<circle cx="180" cy="25" r="2.5" fill="#1d1d1f"/>
<text x="180" y="17" font-family="Times, Georgia, serif" font-style="italic" font-size="14" text-anchor="middle">C</text>
<circle cx="25" cy="145" r="2.5" fill="#1d1d1f"/>
<text x="15" y="163" font-family="Times, Georgia, serif" font-style="italic" font-size="14" text-anchor="end">A</text>
<circle cx="215" cy="145" r="2.5" fill="#1d1d1f"/>
<text x="225" y="163" font-family="Times, Georgia, serif" font-style="italic" font-size="14" text-anchor="start">D</text>
<circle cx="120" cy="95" r="2.5" fill="#1d1d1f"/>
<text x="120" y="111" font-family="Times, Georgia, serif" font-style="italic" font-size="14" text-anchor="middle">E</text>
<circle cx="120" cy="60" r="2.5" fill="#1d1d1f"/>
<text x="120" y="52" font-family="Times, Georgia, serif" font-style="italic" font-size="14" text-anchor="middle">F</text>
</svg>