<svg xmlns="http://www.w3.org/2000/svg" viewBox="0 0 320 130" width="320" height="130">
<defs>
  <marker id="arrow" viewBox="0 0 10 10" refX="9" refY="5" markerWidth="7" markerHeight="7" orient="auto-start-reverse">
    <path d="M0,0 L10,5 L0,10 z" fill="#1d1d1f"/>
  </marker>
</defs>
<circle cx="160" cy="65" r="2.5" fill="#1d1d1f"/>
<text x="160" y="57" font-family="Times, Georgia, serif" font-style="normal" font-size="14" text-anchor="middle">O</text>
<line x1="40" y1="30" x2="75" y2="22" stroke="#1d1d1f" stroke-width="1.4" fill="none"/>
<line x1="75" y1="22" x2="115" y2="50" stroke="#1d1d1f" stroke-width="1.4" fill="none"/>
<line x1="115" y1="50" x2="90" y2="95" stroke="#1d1d1f" stroke-width="1.4" fill="none"/>
<line x1="90" y1="95" x2="45" y2="85" stroke="#1d1d1f" stroke-width="1.4" fill="none"/>
<line x1="45" y1="85" x2="40" y2="30" stroke="#1d1d1f" stroke-width="1.4" fill="none"/>
<line x1="280" y1="100" x2="245" y2="108" stroke="#1d1d1f" stroke-width="1.4" fill="none"/>
<line x1="245" y1="108" x2="205" y2="80" stroke="#1d1d1f" stroke-width="1.4" fill="none"/>
<line x1="205" y1="80" x2="230" y2="35" stroke="#1d1d1f" stroke-width="1.4" fill="none"/>
<line x1="230" y1="35" x2="275" y2="45" stroke="#1d1d1f" stroke-width="1.4" fill="none"/>
<line x1="275" y1="45" x2="280" y2="100" stroke="#1d1d1f" stroke-width="1.4" fill="none"/>
<circle cx="40" cy="30" r="2.5" fill="#1d1d1f"/>
<text x="40" y="22" font-family="Times, Georgia, serif" font-style="italic" font-size="14" text-anchor="middle">A</text>
<circle cx="75" cy="22" r="2.5" fill="#1d1d1f"/>
<text x="75" y="14" font-family="Times, Georgia, serif" font-style="italic" font-size="14" text-anchor="middle">E</text>
<circle cx="115" cy="50" r="2.5" fill="#1d1d1f"/>
<text x="127" y="54" font-family="Times, Georgia, serif" font-style="italic" font-size="14" text-anchor="start">D</text>
<circle cx="90" cy="95" r="2.5" fill="#1d1d1f"/>
<text x="90" y="111" font-family="Times, Georgia, serif" font-style="italic" font-size="14" text-anchor="middle">C</text>
<circle cx="45" cy="85" r="2.5" fill="#1d1d1f"/>
<text x="45" y="101" font-family="Times, Georgia, serif" font-style="italic" font-size="14" text-anchor="middle">B</text>
<circle cx="280" cy="100" r="2.5" fill="#1d1d1f"/>
<text x="280" y="116" font-family="Times, Georgia, serif" font-style="italic" font-size="14" text-anchor="middle">A'</text>
<circle cx="245" cy="108" r="2.5" fill="#1d1d1f"/>
<text x="245" y="124" font-family="Times, Georgia, serif" font-style="italic" font-size="14" text-anchor="middle">E'</text>
<circle cx="205" cy="80" r="2.5" fill="#1d1d1f"/>
<text x="193" y="84" font-family="Times, Georgia, serif" font-style="italic" font-size="14" text-anchor="end">D'</text>
<circle cx="230" cy="35" r="2.5" fill="#1d1d1f"/>
<text x="230" y="27" font-family="Times, Georgia, serif" font-style="italic" font-size="14" text-anchor="middle">C'</text>
<circle cx="275" cy="45" r="2.5" fill="#1d1d1f"/>
<text x="275" y="37" font-family="Times, Georgia, serif" font-style="italic" font-size="14" text-anchor="middle">B'</text>
</svg>