<svg xmlns="http://www.w3.org/2000/svg" viewBox="0 0 320 150" width="320" height="150">
<defs>
  <marker id="arrow" viewBox="0 0 10 10" refX="9" refY="5" markerWidth="7" markerHeight="7" orient="auto-start-reverse">
    <path d="M0,0 L10,5 L0,10 z" fill="#1d1d1f"/>
  </marker>
</defs>
<line x1="160" y1="10" x2="160" y2="140" stroke="#1d1d1f" stroke-width="1.2" stroke-dasharray="4,3" fill="none"/>
<text x="164" y="144" font-family="Times, Georgia, serif" font-style="italic" font-size="11" text-anchor="start">ℓ</text>
<line x1="40" y1="35" x2="75" y2="25" stroke="#1d1d1f" stroke-width="1.4" fill="none"/>
<line x1="75" y1="25" x2="115" y2="60" stroke="#1d1d1f" stroke-width="1.4" fill="none"/>
<line x1="115" y1="60" x2="90" y2="100" stroke="#1d1d1f" stroke-width="1.4" fill="none"/>
<line x1="90" y1="100" x2="45" y2="90" stroke="#1d1d1f" stroke-width="1.4" fill="none"/>
<line x1="45" y1="90" x2="40" y2="35" stroke="#1d1d1f" stroke-width="1.4" fill="none"/>
<line x1="280" y1="35" x2="245" y2="25" stroke="#1d1d1f" stroke-width="1.4" fill="none"/>
<line x1="245" y1="25" x2="205" y2="60" stroke="#1d1d1f" stroke-width="1.4" fill="none"/>
<line x1="205" y1="60" x2="230" y2="100" stroke="#1d1d1f" stroke-width="1.4" fill="none"/>
<line x1="230" y1="100" x2="275" y2="90" stroke="#1d1d1f" stroke-width="1.4" fill="none"/>
<line x1="275" y1="90" x2="280" y2="35" stroke="#1d1d1f" stroke-width="1.4" fill="none"/>
<circle cx="40" cy="35" r="2.5" fill="#1d1d1f"/>
<text x="40" y="27" font-family="Times, Georgia, serif" font-style="italic" font-size="14" text-anchor="middle">A</text>
<circle cx="75" cy="25" r="2.5" fill="#1d1d1f"/>
<text x="75" y="17" font-family="Times, Georgia, serif" font-style="italic" font-size="14" text-anchor="middle">E</text>
<circle cx="115" cy="60" r="2.5" fill="#1d1d1f"/>
<text x="127" y="64" font-family="Times, Georgia, serif" font-style="italic" font-size="14" text-anchor="start">D</text>
<circle cx="90" cy="100" r="2.5" fill="#1d1d1f"/>
<text x="90" y="116" font-family="Times, Georgia, serif" font-style="italic" font-size="14" text-anchor="middle">C</text>
<circle cx="45" cy="90" r="2.5" fill="#1d1d1f"/>
<text x="45" y="106" font-family="Times, Georgia, serif" font-style="italic" font-size="14" text-anchor="middle">B</text>
<circle cx="280" cy="35" r="2.5" fill="#1d1d1f"/>
<text x="280" y="27" font-family="Times, Georgia, serif" font-style="italic" font-size="14" text-anchor="middle">A'</text>
<circle cx="245" cy="25" r="2.5" fill="#1d1d1f"/>
<text x="245" y="17" font-family="Times, Georgia, serif" font-style="italic" font-size="14" text-anchor="middle">E'</text>
<circle cx="205" cy="60" r="2.5" fill="#1d1d1f"/>
<text x="193" y="64" font-family="Times, Georgia, serif" font-style="italic" font-size="14" text-anchor="end">D'</text>
<circle cx="230" cy="100" r="2.5" fill="#1d1d1f"/>
<text x="230" y="116" font-family="Times, Georgia, serif" font-style="italic" font-size="14" text-anchor="middle">C'</text>
<circle cx="275" cy="90" r="2.5" fill="#1d1d1f"/>
<text x="275" y="106" font-family="Times, Georgia, serif" font-style="italic" font-size="14" text-anchor="middle">B'</text>
</svg>