<svg xmlns="http://www.w3.org/2000/svg" viewBox="0 0 180 160" width="180" height="160">
<defs>
  <marker id="arrow" viewBox="0 0 10 10" refX="9" refY="5" markerWidth="7" markerHeight="7" orient="auto-start-reverse">
    <path d="M0,0 L10,5 L0,10 z" fill="#1d1d1f"/>
  </marker>
</defs>
<line x1="40" y1="30" x2="140" y2="30" stroke="#1d1d1f" stroke-width="1.4" fill="none"/>
<line x1="140" y1="30" x2="140" y2="130" stroke="#1d1d1f" stroke-width="1.4" fill="none"/>
<line x1="140" y1="130" x2="40" y2="130" stroke="#1d1d1f" stroke-width="1.4" fill="none"/>
<line x1="40" y1="130" x2="40" y2="30" stroke="#1d1d1f" stroke-width="1.4" fill="none"/>
<line x1="40" y1="130" x2="90.0" y2="43.39745962155614" stroke="#1d1d1f" stroke-width="1.4" fill="none"/>
<line x1="140" y1="130" x2="90.0" y2="43.39745962155614" stroke="#1d1d1f" stroke-width="1.4" fill="none"/>
<line x1="90.0" y1="30" x2="90.0" y2="43.39745962155614" stroke="#1d1d1f" stroke-width="1.4" fill="none"/>
<circle cx="40" cy="30" r="2.5" fill="#1d1d1f"/>
<text x="30" y="22" font-family="Times, Georgia, serif" font-style="italic" font-size="14" text-anchor="end">A</text>
<circle cx="90.0" cy="30" r="2.5" fill="#1d1d1f"/>
<text x="90.0" y="22" font-family="Times, Georgia, serif" font-style="italic" font-size="14" text-anchor="middle">F</text>
<circle cx="140" cy="30" r="2.5" fill="#1d1d1f"/>
<text x="150" y="22" font-family="Times, Georgia, serif" font-style="italic" font-size="14" text-anchor="start">B</text>
<circle cx="90.0" cy="43.39745962155614" r="2.5" fill="#1d1d1f"/>
<text x="100.0" y="61.39745962155614" font-family="Times, Georgia, serif" font-style="italic" font-size="14" text-anchor="start">E</text>
<circle cx="40" cy="130" r="2.5" fill="#1d1d1f"/>
<text x="30" y="148" font-family="Times, Georgia, serif" font-style="italic" font-size="14" text-anchor="end">D</text>
<circle cx="140" cy="130" r="2.5" fill="#1d1d1f"/>
<text x="150" y="148" font-family="Times, Georgia, serif" font-style="italic" font-size="14" text-anchor="start">C</text>
</svg>