<svg xmlns="http://www.w3.org/2000/svg" viewBox="0 0 220 130" width="220" height="130">
<defs>
  <marker id="arrow" viewBox="0 0 10 10" refX="9" refY="5" markerWidth="7" markerHeight="7" orient="auto-start-reverse">
    <path d="M0,0 L10,5 L0,10 z" fill="#1d1d1f"/>
  </marker>
</defs>
<line x1="95.44935022831883" y1="10.835573584328557" x2="136.54670399930754" y2="19.94663756410545" stroke="#1d1d1f" stroke-width="1.4" fill="none"/>
<line x1="136.54670399930754" y1="19.94663756410545" x2="159.16442641567144" y2="55.449350228318835" stroke="#1d1d1f" stroke-width="1.4" fill="none"/>
<line x1="159.16442641567144" y1="55.449350228318835" x2="150.05336243589454" y2="96.54670399930754" stroke="#1d1d1f" stroke-width="1.4" fill="none"/>
<line x1="150.05336243589454" y1="96.54670399930754" x2="114.55064977168118" y2="119.16442641567144" stroke="#1d1d1f" stroke-width="1.4" fill="none"/>
<line x1="114.55064977168118" y1="119.16442641567144" x2="73.45329600069246" y2="110.05336243589454" stroke="#1d1d1f" stroke-width="1.4" fill="none"/>
<line x1="73.45329600069246" y1="110.05336243589454" x2="50.83557358432856" y2="74.55064977168117" stroke="#1d1d1f" stroke-width="1.4" fill="none"/>
<line x1="50.83557358432856" y1="74.55064977168117" x2="59.94663756410545" y2="33.45329600069246" stroke="#1d1d1f" stroke-width="1.4" fill="none"/>
<line x1="59.94663756410545" y1="33.45329600069246" x2="95.44935022831883" y2="10.835573584328557" stroke="#1d1d1f" stroke-width="1.4" fill="none"/>
<line x1="95.44935022831883" y1="10.835573584328557" x2="159.16442641567144" y2="55.449350228318835" stroke="#1d1d1f" stroke-width="1.4" fill="none"/>
<line x1="95.44935022831883" y1="10.835573584328557" x2="150.05336243589454" y2="96.54670399930754" stroke="#1d1d1f" stroke-width="1.4" fill="none"/>
<line x1="95.44935022831883" y1="10.835573584328557" x2="114.55064977168118" y2="119.16442641567144" stroke="#1d1d1f" stroke-width="1.4" fill="none"/>
<line x1="95.44935022831883" y1="10.835573584328557" x2="73.45329600069246" y2="110.05336243589454" stroke="#1d1d1f" stroke-width="1.4" fill="none"/>
<line x1="95.44935022831883" y1="10.835573584328557" x2="50.83557358432856" y2="74.55064977168117" stroke="#1d1d1f" stroke-width="1.4" fill="none"/>
</svg>