<svg xmlns="http://www.w3.org/2000/svg" viewBox="0 0 260 100" width="260" height="100">
<defs>
  <marker id="arrow" viewBox="0 0 10 10" refX="9" refY="5" markerWidth="7" markerHeight="7" orient="auto-start-reverse">
    <path d="M0,0 L10,5 L0,10 z" fill="#1d1d1f"/>
  </marker>
</defs>
<line x1="40" y1="30" x2="80" y2="80" stroke="#1d1d1f" stroke-width="1.4" fill="none"/>
<line x1="80" y1="80" x2="15" y2="80" stroke="#1d1d1f" stroke-width="1.4" fill="none"/>
<line x1="40" y1="30" x2="15" y2="80" stroke="#1d1d1f" stroke-width="1.4" fill="none"/>
<line x1="180" y1="30" x2="220" y2="80" stroke="#1d1d1f" stroke-width="1.4" fill="none"/>
<line x1="220" y1="80" x2="155" y2="80" stroke="#1d1d1f" stroke-width="1.4" fill="none"/>
<line x1="180" y1="30" x2="155" y2="80" stroke="#1d1d1f" stroke-width="1.4" fill="none"/>
<line x1="47.5" y1="85.0" x2="47.5" y2="75.0" stroke="#1d1d1f" stroke-width="1.4" fill="none"/>
<line x1="187.5" y1="85.0" x2="187.5" y2="75.0" stroke="#1d1d1f" stroke-width="1.4" fill="none"/>
<path d="M 72.50 70.63 A 12 12 0 0 0 68.00 80.00" stroke="#1d1d1f" stroke-width="1.4" fill="none"/>
<path d="M 212.50 70.63 A 12 12 0 0 0 208.00 80.00" stroke="#1d1d1f" stroke-width="1.4" fill="none"/>
<path d="M 25.00 80.00 A 10 10 0 0 0 19.47 71.06" stroke="#1d1d1f" stroke-width="1.4" fill="none"/>
<path d="M 29.00 80.00 A 14 14 0 0 0 21.26 67.48" stroke="#1d1d1f" stroke-width="1.4" fill="none"/>
<path d="M 165.00 80.00 A 10 10 0 0 0 159.47 71.06" stroke="#1d1d1f" stroke-width="1.4" fill="none"/>
<path d="M 169.00 80.00 A 14 14 0 0 0 161.26 67.48" stroke="#1d1d1f" stroke-width="1.4" fill="none"/>
</svg>