<svg xmlns="http://www.w3.org/2000/svg" viewBox="0 0 200 130" width="200" height="130">
<defs>
  <marker id="arrow" viewBox="0 0 10 10" refX="9" refY="5" markerWidth="7" markerHeight="7" orient="auto-start-reverse">
    <path d="M0,0 L10,5 L0,10 z" fill="#1d1d1f"/>
  </marker>
</defs>
<line x1="35" y1="25" x2="160" y2="25" stroke="#1d1d1f" stroke-width="1.4" fill="none"/>
<line x1="160" y1="25" x2="160" y2="105" stroke="#1d1d1f" stroke-width="1.4" fill="none"/>
<line x1="160" y1="105" x2="35" y2="105" stroke="#1d1d1f" stroke-width="1.4" fill="none"/>
<line x1="35" y1="105" x2="35" y2="25" stroke="#1d1d1f" stroke-width="1.4" fill="none"/>
<line x1="35" y1="105" x2="90" y2="25" stroke="#1d1d1f" stroke-width="1.4" fill="none"/>
<line x1="160" y1="25" x2="90" y2="25" stroke="#1d1d1f" stroke-width="1.4" fill="none"/>
<path d="M 35.00 99.00 L 41.00 99.00 L 41.00 105.00" stroke="#1d1d1f" stroke-width="1.4" fill="none"/>
<path d="M 154.00 25.00 L 154.00 31.00 L 160.00 31.00" stroke="#1d1d1f" stroke-width="1.4" fill="none"/>
<circle cx="35" cy="25" r="2.5" fill="#1d1d1f"/>
<text x="25" y="17" font-family="Times, Georgia, serif" font-style="italic" font-size="14" text-anchor="end">A</text>
<circle cx="90" cy="25" r="2.5" fill="#1d1d1f"/>
<text x="90" y="17" font-family="Times, Georgia, serif" font-style="italic" font-size="14" text-anchor="middle">E</text>
<circle cx="160" cy="25" r="2.5" fill="#1d1d1f"/>
<text x="170" y="17" font-family="Times, Georgia, serif" font-style="italic" font-size="14" text-anchor="start">B</text>
<circle cx="35" cy="105" r="2.5" fill="#1d1d1f"/>
<text x="25" y="123" font-family="Times, Georgia, serif" font-style="italic" font-size="14" text-anchor="end">D</text>
<circle cx="160" cy="105" r="2.5" fill="#1d1d1f"/>
<text x="170" y="123" font-family="Times, Georgia, serif" font-style="italic" font-size="14" text-anchor="start">C</text>
</svg>