<svg xmlns="http://www.w3.org/2000/svg" viewBox="0 0 200 180" width="200" height="180">
<defs>
  <marker id="arrow" viewBox="0 0 10 10" refX="9" refY="5" markerWidth="7" markerHeight="7" orient="auto-start-reverse">
    <path d="M0,0 L10,5 L0,10 z" fill="#1d1d1f"/>
  </marker>
</defs>
<line x1="160" y1="130" x2="40" y2="130" stroke="#1d1d1f" stroke-width="1.4" fill="none"/>
<line x1="40" y1="130" x2="110" y2="90" stroke="#1d1d1f" stroke-width="1.4" fill="none"/>
<line x1="160" y1="130" x2="110" y2="90" stroke="#1d1d1f" stroke-width="1.4" fill="none"/>
<line x1="103.33333333333333" y1="25" x2="160" y2="130" stroke="#1d1d1f" stroke-width="1.4" fill="none"/>
<line x1="103.33333333333333" y1="25" x2="40" y2="130" stroke="#1d1d1f" stroke-width="1.4" fill="none"/>
<line x1="103.33333333333333" y1="25" x2="110" y2="90" stroke="#1d1d1f" stroke-width="1.4" fill="none"/>
<line x1="103.33333333333333" y1="25" x2="103.33333333333333" y2="116.66666666666667" stroke="#1d1d1f" stroke-width="1.2" stroke-dasharray="4,3" fill="none"/>
<line x1="103.33333333333333" y1="116.66666666666667" x2="110" y2="90" stroke="#1d1d1f" stroke-width="1.4" fill="none"/>
<path d="M 103.33 110.67 L 104.79 104.85 L 104.79 110.85" stroke="#1d1d1f" stroke-width="1.4" fill="none"/>
<circle cx="160" cy="130" r="2.5" fill="#1d1d1f"/>
<text x="172" y="134" font-family="Times, Georgia, serif" font-style="italic" font-size="14" text-anchor="start">A</text>
<circle cx="103.33333333333333" cy="25" r="2.5" fill="#1d1d1f"/>
<text x="103.33333333333333" y="17" font-family="Times, Georgia, serif" font-style="italic" font-size="14" text-anchor="middle">B</text>
<circle cx="40" cy="130" r="2.5" fill="#1d1d1f"/>
<text x="28" y="134" font-family="Times, Georgia, serif" font-style="italic" font-size="14" text-anchor="end">C</text>
<circle cx="110" cy="90" r="2.5" fill="#1d1d1f"/>
<text x="120" y="108" font-family="Times, Georgia, serif" font-style="italic" font-size="14" text-anchor="start">D</text>
<circle cx="103.33333333333333" cy="116.66666666666667" r="2.5" fill="#1d1d1f"/>
<text x="103.33333333333333" y="132.66666666666669" font-family="Times, Georgia, serif" font-style="italic" font-size="14" text-anchor="middle">O</text>
</svg>