<svg xmlns="http://www.w3.org/2000/svg" viewBox="0 0 380 160" width="380" height="160">
<defs>
  <marker id="arrow" viewBox="0 0 10 10" refX="9" refY="5" markerWidth="7" markerHeight="7" orient="auto-start-reverse">
    <path d="M0,0 L10,5 L0,10 z" fill="#1d1d1f"/>
  </marker>
</defs>
<line x1="20" y1="130" x2="130" y2="20" stroke="#1d1d1f" stroke-width="1.4" fill="none"/>
<line x1="20" y1="130" x2="340" y2="130" stroke="#1d1d1f" stroke-width="1.4" fill="none"/>
<line x1="220" y1="130" x2="130" y2="20" stroke="#1d1d1f" stroke-width="1.4" fill="none"/>
<line x1="130" y1="20" x2="120.0" y2="130.0" stroke="#1d1d1f" stroke-width="1.4" fill="none"/>
<line x1="121.80327868852459" y1="110.16393442622952" x2="340" y2="130" stroke="#1d1d1f" stroke-width="1.4" fill="none"/>
<path d="M 120.10 29.90 A 14 14 0 0 0 128.73 33.94" stroke="#1d1d1f" stroke-width="1.4" fill="none"/>
<path d="M 128.73 33.94 A 14 14 0 0 0 138.87 30.84" stroke="#1d1d1f" stroke-width="1.4" fill="none"/>
<path d="M 121.17 117.14 L 128.14 117.77 L 128.77 110.80" stroke="#1d1d1f" stroke-width="1.4" fill="none"/>
<text x="117.0" y="75.0" font-family="Times, Georgia, serif" font-style="italic" font-size="11" text-anchor="middle">m</text>
<text x="70.0" y="126" font-family="Times, Georgia, serif" font-style="italic" font-size="11" text-anchor="middle">p</text>
<text x="170.0" y="126" font-family="Times, Georgia, serif" font-style="italic" font-size="11" text-anchor="middle">q</text>
<circle cx="20" cy="130" r="2.5" fill="#1d1d1f"/>
<text x="10" y="148" font-family="Times, Georgia, serif" font-style="italic" font-size="14" text-anchor="end">P</text>
<circle cx="120.0" cy="130.0" r="2.5" fill="#1d1d1f"/>
<text x="120.0" y="146.0" font-family="Times, Georgia, serif" font-style="italic" font-size="14" text-anchor="middle">S</text>
<circle cx="220" cy="130" r="2.5" fill="#1d1d1f"/>
<text x="220" y="146" font-family="Times, Georgia, serif" font-style="italic" font-size="14" text-anchor="middle">Q</text>
<circle cx="340" cy="130" r="2.5" fill="#1d1d1f"/>
<text x="350" y="148" font-family="Times, Georgia, serif" font-style="italic" font-size="14" text-anchor="start">D</text>
<circle cx="130" cy="20" r="2.5" fill="#1d1d1f"/>
<text x="130" y="12" font-family="Times, Georgia, serif" font-style="italic" font-size="14" text-anchor="middle">R</text>
<circle cx="121.80327868852459" cy="110.16393442622952" r="2.5" fill="#1d1d1f"/>
<text x="111.80327868852459" y="102.16393442622952" font-family="Times, Georgia, serif" font-style="italic" font-size="14" text-anchor="end">C</text>
</svg>