<svg xmlns="http://www.w3.org/2000/svg" viewBox="0 0 280 150" width="280" height="150">
<defs>
  <marker id="arrow" viewBox="0 0 10 10" refX="9" refY="5" markerWidth="7" markerHeight="7" orient="auto-start-reverse">
    <path d="M0,0 L10,5 L0,10 z" fill="#1d1d1f"/>
  </marker>
</defs>
<line x1="20" y1="130" x2="260" y2="130" stroke="#1d1d1f" stroke-width="1.4" fill="none"/>
<path d="M 20 130 A 120.0 120.0 0 0 1 260 130" stroke="#1d1d1f" stroke-width="1.4" fill="none"/>
<path d="M 20.0 130 A 66.0 66.0 0 0 1 152.0 130" stroke="#1d1d1f" stroke-width="1.4" fill="none"/>
<path d="M 164.0 130 A 48.0 48.0 0 0 1 260.0 130" stroke="#1d1d1f" stroke-width="1.4" fill="none"/>
<line x1="38.0" y1="70.0" x2="242.0" y2="76.0" stroke="#1d1d1f" stroke-width="1.4" fill="none"/>
<circle cx="38.0" cy="70.0" r="2.5" fill="#1d1d1f"/>
<text x="28.0" y="62.0" font-family="Times, Georgia, serif" font-style="italic" font-size="14" text-anchor="end">L</text>
<circle cx="242.0" cy="76.0" r="2.5" fill="#1d1d1f"/>
<text x="252.0" y="68.0" font-family="Times, Georgia, serif" font-style="italic" font-size="14" text-anchor="start">M</text>
<circle cx="86.0" cy="130" r="2.5" fill="#1d1d1f"/>
<text x="86.0" y="146" font-family="Times, Georgia, serif" font-style="italic" font-size="14" text-anchor="middle">P</text>
<circle cx="212.0" cy="130" r="2.5" fill="#1d1d1f"/>
<text x="212.0" y="146" font-family="Times, Georgia, serif" font-style="italic" font-size="14" text-anchor="middle">Q</text>
</svg>