<svg xmlns="http://www.w3.org/2000/svg" viewBox="0 0 220 160" width="220" height="160">
<defs>
  <marker id="arrow" viewBox="0 0 10 10" refX="9" refY="5" markerWidth="7" markerHeight="7" orient="auto-start-reverse">
    <path d="M0,0 L10,5 L0,10 z" fill="#1d1d1f"/>
  </marker>
</defs>
<line x1="45" y1="130" x2="45" y2="30" stroke="#1d1d1f" stroke-width="1.4" fill="none"/>
<line x1="45" y1="30" x2="185" y2="130" stroke="#1d1d1f" stroke-width="1.4" fill="none"/>
<line x1="45" y1="130" x2="185" y2="130" stroke="#1d1d1f" stroke-width="1.4" fill="none"/>
<line x1="45" y1="30" x2="45.0" y2="130.0" stroke="#1d1d1f" stroke-width="1.4" fill="none"/>
<line x1="45" y1="130" x2="103.33333333333334" y2="71.66666666666667" stroke="#1d1d1f" stroke-width="1.4" fill="none"/>
<path d="M 45.00 36.00 L 49.88 39.49 L 49.88 33.49" stroke="#1d1d1f" stroke-width="1.4" fill="none"/>
<circle cx="45" cy="130" r="2.5" fill="#1d1d1f"/>
<text x="45" y="146" font-family="Times, Georgia, serif" font-style="italic" font-size="14" text-anchor="middle">A</text>
<circle cx="45" cy="30" r="2.5" fill="#1d1d1f"/>
<text x="35" y="22" font-family="Times, Georgia, serif" font-style="italic" font-size="14" text-anchor="end">B</text>
<circle cx="45.0" cy="130.0" r="2.5" fill="#1d1d1f"/>
<text x="55.0" y="122.0" font-family="Times, Georgia, serif" font-style="italic" font-size="14" text-anchor="start">D</text>
<text x="57.0" y="134.0" font-family="Times, Georgia, serif" font-style="italic" font-size="14" text-anchor="start">P</text>
<circle cx="103.33333333333334" cy="71.66666666666667" r="2.5" fill="#1d1d1f"/>
<text x="103.33333333333334" y="63.66666666666667" font-family="Times, Georgia, serif" font-style="italic" font-size="14" text-anchor="middle">F</text>
<circle cx="185" cy="130" r="2.5" fill="#1d1d1f"/>
<text x="195" y="148" font-family="Times, Georgia, serif" font-style="italic" font-size="14" text-anchor="start">C</text>
</svg>