<svg xmlns="http://www.w3.org/2000/svg" viewBox="0 0 220 160" width="220" height="160">
<defs>
  <marker id="arrow" viewBox="0 0 10 10" refX="9" refY="5" markerWidth="7" markerHeight="7" orient="auto-start-reverse">
    <path d="M0,0 L10,5 L0,10 z" fill="#1d1d1f"/>
  </marker>
</defs>
<line x1="110" y1="20" x2="200" y2="80" stroke="#1d1d1f" stroke-width="1.4" fill="none"/>
<line x1="200" y1="80" x2="110" y2="140" stroke="#1d1d1f" stroke-width="1.4" fill="none"/>
<line x1="110" y1="140" x2="20" y2="80" stroke="#1d1d1f" stroke-width="1.4" fill="none"/>
<line x1="20" y1="80" x2="110" y2="20" stroke="#1d1d1f" stroke-width="1.4" fill="none"/>
<line x1="110" y1="20" x2="110" y2="140" stroke="#1d1d1f" stroke-width="1.4" fill="none"/>
<line x1="200" y1="80" x2="20" y2="80" stroke="#1d1d1f" stroke-width="1.4" fill="none"/>
<path d="M 116.00 80.00 L 116.00 74.00 L 110.00 74.00" stroke="#1d1d1f" stroke-width="1.4" fill="none"/>
<line x1="157.77350098112615" y1="45.83974852831078" x2="152.22649901887385" y2="54.16025147168922" stroke="#1d1d1f" stroke-width="1.4" fill="none"/>
<line x1="157.77350098112615" y1="114.16025147168922" x2="152.22649901887385" y2="105.83974852831078" stroke="#1d1d1f" stroke-width="1.4" fill="none"/>
<line x1="62.22649901887385" y1="114.16025147168922" x2="67.77350098112615" y2="105.83974852831078" stroke="#1d1d1f" stroke-width="1.4" fill="none"/>
<line x1="62.22649901887385" y1="45.83974852831078" x2="67.77350098112615" y2="54.16025147168922" stroke="#1d1d1f" stroke-width="1.4" fill="none"/>
<circle cx="110" cy="20" r="2.5" fill="#1d1d1f"/>
<text x="110" y="12" font-family="Times, Georgia, serif" font-style="italic" font-size="14" text-anchor="middle">A</text>
<circle cx="200" cy="80" r="2.5" fill="#1d1d1f"/>
<text x="212" y="84" font-family="Times, Georgia, serif" font-style="italic" font-size="14" text-anchor="start">B</text>
<circle cx="110" cy="140" r="2.5" fill="#1d1d1f"/>
<text x="110" y="156" font-family="Times, Georgia, serif" font-style="italic" font-size="14" text-anchor="middle">C</text>
<circle cx="20" cy="80" r="2.5" fill="#1d1d1f"/>
<text x="8" y="84" font-family="Times, Georgia, serif" font-style="italic" font-size="14" text-anchor="end">D</text>
<circle cx="110" cy="80" r="2.5" fill="#1d1d1f"/>
<text x="120" y="98" font-family="Times, Georgia, serif" font-style="italic" font-size="14" text-anchor="start">E</text>
</svg>