<svg xmlns="http://www.w3.org/2000/svg" viewBox="0 0 280 160" width="280" height="160">
<defs>
  <marker id="arrow" viewBox="0 0 10 10" refX="9" refY="5" markerWidth="7" markerHeight="7" orient="auto-start-reverse">
    <path d="M0,0 L10,5 L0,10 z" fill="#1d1d1f"/>
  </marker>
</defs>
<line x1="75" y1="25" x2="140" y2="130" stroke="#1d1d1f" stroke-width="1.4" fill="none"/>
<line x1="140" y1="130" x2="10" y2="130" stroke="#1d1d1f" stroke-width="1.4" fill="none"/>
<line x1="75" y1="25" x2="10" y2="130" stroke="#1d1d1f" stroke-width="1.4" fill="none"/>
<line x1="215" y1="60" x2="255" y2="130" stroke="#1d1d1f" stroke-width="1.4" fill="none"/>
<line x1="255" y1="130" x2="175" y2="130" stroke="#1d1d1f" stroke-width="1.4" fill="none"/>
<line x1="215" y1="60" x2="175" y2="130" stroke="#1d1d1f" stroke-width="1.4" fill="none"/>
<text x="75.0" y="146" font-family="Times, Georgia, serif" font-style="italic" font-size="14" text-anchor="middle">a</text>
<text x="34.5" y="81.5" font-family="Times, Georgia, serif" font-style="italic" font-size="14" text-anchor="end">b</text>
<text x="115.5" y="73.5" font-family="Times, Georgia, serif" font-style="italic" font-size="14" text-anchor="start">c</text>
<text x="215.0" y="146" font-family="Times, Georgia, serif" font-style="italic" font-size="14" text-anchor="middle">d</text>
<text x="189.0" y="99.0" font-family="Times, Georgia, serif" font-style="italic" font-size="14" text-anchor="end">e</text>
<text x="241.0" y="91.0" font-family="Times, Georgia, serif" font-style="italic" font-size="14" text-anchor="start">f</text>
<circle cx="75" cy="25" r="2.5" fill="#1d1d1f"/>
<text x="75" y="17" font-family="Times, Georgia, serif" font-style="italic" font-size="14" text-anchor="middle">A</text>
<circle cx="140" cy="130" r="2.5" fill="#1d1d1f"/>
<text x="150" y="148" font-family="Times, Georgia, serif" font-style="italic" font-size="14" text-anchor="start">B</text>
<circle cx="10" cy="130" r="2.5" fill="#1d1d1f"/>
<text x="0" y="148" font-family="Times, Georgia, serif" font-style="italic" font-size="14" text-anchor="end">C</text>
<circle cx="215" cy="60" r="2.5" fill="#1d1d1f"/>
<text x="215" y="52" font-family="Times, Georgia, serif" font-style="italic" font-size="14" text-anchor="middle">D</text>
<circle cx="255" cy="130" r="2.5" fill="#1d1d1f"/>
<text x="265" y="148" font-family="Times, Georgia, serif" font-style="italic" font-size="14" text-anchor="start">E</text>
<circle cx="175" cy="130" r="2.5" fill="#1d1d1f"/>
<text x="165" y="148" font-family="Times, Georgia, serif" font-style="italic" font-size="14" text-anchor="end">F</text>
</svg>