<svg xmlns="http://www.w3.org/2000/svg" viewBox="0 0 240 240" width="240" height="240">
<defs>
  <marker id="arrow" viewBox="0 0 10 10" refX="9" refY="5" markerWidth="7" markerHeight="7" orient="auto-start-reverse">
    <path d="M0,0 L10,5 L0,10 z" fill="#1d1d1f"/>
  </marker>
</defs>
<circle cx="120" cy="120" r="90" stroke="#1d1d1f" stroke-width="1.4" fill="none"/>
<circle cx="120" cy="120" r="77.94228634059948" stroke="#1d1d1f" stroke-width="1.4" fill="none"/>
<line x1="120.0" y1="30.0" x2="197.94228634059948" y2="75.0" stroke="#1d1d1f" stroke-width="1.4" fill="none"/>
<line x1="197.94228634059948" y1="75.0" x2="197.94228634059948" y2="165.0" stroke="#1d1d1f" stroke-width="1.4" fill="none"/>
<line x1="197.94228634059948" y1="165.0" x2="120.0" y2="210.0" stroke="#1d1d1f" stroke-width="1.4" fill="none"/>
<line x1="120.0" y1="210.0" x2="42.05771365940052" y2="165.0" stroke="#1d1d1f" stroke-width="1.4" fill="none"/>
<line x1="42.05771365940052" y1="165.0" x2="42.05771365940052" y2="75.0" stroke="#1d1d1f" stroke-width="1.4" fill="none"/>
<line x1="42.05771365940052" y1="75.0" x2="120.0" y2="30.0" stroke="#1d1d1f" stroke-width="1.4" fill="none"/>
<line x1="120" y1="120" x2="120.0" y2="30.0" stroke="#1d1d1f" stroke-width="1.4" fill="none"/>
<line x1="120" y1="120" x2="158.97114317029974" y2="52.5" stroke="#1d1d1f" stroke-width="1.4" fill="none"/>
<line x1="120.0" y1="30.0" x2="158.97114317029974" y2="52.5" stroke="#1d1d1f" stroke-width="1.4" fill="none"/>
<path d="M 155.97 57.70 L 150.77 54.70 L 153.77 49.50" stroke="#1d1d1f" stroke-width="1.4" fill="none"/>
<circle cx="120" cy="120" r="2.5" fill="#1d1d1f"/>
<text x="120" y="136" font-family="Times, Georgia, serif" font-style="italic" font-size="14" text-anchor="middle">O</text>
<circle cx="120.0" cy="30.0" r="2.5" fill="#1d1d1f"/>
<text x="120.0" y="22.0" font-family="Times, Georgia, serif" font-style="italic" font-size="14" text-anchor="middle">A</text>
<circle cx="158.97114317029974" cy="52.5" r="2.5" fill="#1d1d1f"/>
<text x="168.97114317029974" y="44.5" font-family="Times, Georgia, serif" font-style="italic" font-size="14" text-anchor="start">X</text>
<text x="124.0" y="75.0" font-family="Times, Georgia, serif" font-style="italic" font-size="11" text-anchor="start">R</text>
<text x="139.48557158514987" y="94.25" font-family="Times, Georgia, serif" font-style="italic" font-size="11" text-anchor="middle">r</text>
<text x="128" y="134" font-family="Times, Georgia, serif" font-style="italic" font-size="10" text-anchor="middle">θ</text>
</svg>