<svg xmlns="http://www.w3.org/2000/svg" viewBox="0 0 200 180" width="200" height="180">
<defs>
  <marker id="arrow" viewBox="0 0 10 10" refX="9" refY="5" markerWidth="7" markerHeight="7" orient="auto-start-reverse">
    <path d="M0,0 L10,5 L0,10 z" fill="#1d1d1f"/>
  </marker>
</defs>
<line x1="45" y1="145" x2="45" y2="30" stroke="#1d1d1f" stroke-width="1.4" fill="none"/>
<line x1="45" y1="30" x2="155" y2="30" stroke="#1d1d1f" stroke-width="1.4" fill="none"/>
<line x1="155" y1="30" x2="155" y2="145" stroke="#1d1d1f" stroke-width="1.4" fill="none"/>
<line x1="155" y1="145" x2="45" y2="145" stroke="#1d1d1f" stroke-width="1.4" fill="none"/>
<circle cx="100" cy="95" r="35" stroke="#1d1d1f" stroke-width="1.4" fill="none"/>
<path d="M 155.00 139.00 L 149.00 139.00 L 149.00 145.00" stroke="#1d1d1f" stroke-width="1.4" fill="none"/>
<circle cx="155" cy="145" r="2.5" fill="#1d1d1f"/>
<text x="145" y="137" font-family="Times, Georgia, serif" font-style="italic" font-size="14" text-anchor="end">D</text>
<circle cx="45" cy="145" r="2.5" fill="#1d1d1f"/>
<text x="55" y="137" font-family="Times, Georgia, serif" font-style="italic" font-size="14" text-anchor="start">A</text>
<circle cx="45" cy="30" r="2.5" fill="#1d1d1f"/>
<text x="55" y="48" font-family="Times, Georgia, serif" font-style="italic" font-size="14" text-anchor="start">B</text>
<circle cx="155" cy="30" r="2.5" fill="#1d1d1f"/>
<text x="145" y="48" font-family="Times, Georgia, serif" font-style="italic" font-size="14" text-anchor="end">C</text>
<circle cx="100" cy="30" r="2.5" fill="#1d1d1f"/>
<text x="100" y="22" font-family="Times, Georgia, serif" font-style="italic" font-size="14" text-anchor="middle">R</text>
<circle cx="155" cy="95" r="2.5" fill="#1d1d1f"/>
<text x="143" y="99" font-family="Times, Georgia, serif" font-style="italic" font-size="14" text-anchor="end">S</text>
<circle cx="100" cy="145" r="2.5" fill="#1d1d1f"/>
<text x="100" y="161" font-family="Times, Georgia, serif" font-style="italic" font-size="14" text-anchor="middle">T</text>
<circle cx="45" cy="95" r="2.5" fill="#1d1d1f"/>
<text x="57" y="99" font-family="Times, Georgia, serif" font-style="italic" font-size="14" text-anchor="start">U</text>
</svg>