<svg xmlns="http://www.w3.org/2000/svg" viewBox="0 0 260 140" width="260" height="140">
<defs>
  <marker id="arrow" viewBox="0 0 10 10" refX="9" refY="5" markerWidth="7" markerHeight="7" orient="auto-start-reverse">
    <path d="M0,0 L10,5 L0,10 z" fill="#1d1d1f"/>
  </marker>
</defs>
<line x1="75" y1="30" x2="185" y2="30" stroke="#1d1d1f" stroke-width="1.4" fill="none"/>
<line x1="185" y1="30" x2="225" y2="110" stroke="#1d1d1f" stroke-width="1.4" fill="none"/>
<line x1="225" y1="110" x2="35" y2="110" stroke="#1d1d1f" stroke-width="1.4" fill="none"/>
<line x1="35" y1="110" x2="75" y2="30" stroke="#1d1d1f" stroke-width="1.4" fill="none"/>
<line x1="75" y1="30" x2="75" y2="110" stroke="#1d1d1f" stroke-width="1.0" stroke-dasharray="3,3" fill="none"/>
<line x1="185" y1="30" x2="185" y2="110" stroke="#1d1d1f" stroke-width="1.0" stroke-dasharray="3,3" fill="none"/>
<line x1="35" y1="110" x2="185" y2="30" stroke="#1d1d1f" stroke-width="1.4" fill="none"/>
<line x1="225" y1="110" x2="75" y2="30" stroke="#1d1d1f" stroke-width="1.4" fill="none"/>
<circle cx="35" cy="110" r="2.5" fill="#1d1d1f"/>
<text x="35" y="126" font-family="Times, Georgia, serif" font-style="italic" font-size="14" text-anchor="middle">A</text>
<circle cx="225" cy="110" r="2.5" fill="#1d1d1f"/>
<text x="225" y="126" font-family="Times, Georgia, serif" font-style="italic" font-size="14" text-anchor="middle">B</text>
<circle cx="185" cy="30" r="2.5" fill="#1d1d1f"/>
<text x="185" y="22" font-family="Times, Georgia, serif" font-style="italic" font-size="14" text-anchor="middle">C</text>
<circle cx="75" cy="30" r="2.5" fill="#1d1d1f"/>
<text x="75" y="22" font-family="Times, Georgia, serif" font-style="italic" font-size="14" text-anchor="middle">D</text>
<circle cx="75" cy="110" r="2.5" fill="#1d1d1f"/>
<text x="75" y="126" font-family="Times, Georgia, serif" font-style="italic" font-size="14" text-anchor="middle">X</text>
<circle cx="185" cy="110" r="2.5" fill="#1d1d1f"/>
<text x="185" y="126" font-family="Times, Georgia, serif" font-style="italic" font-size="14" text-anchor="middle">Y</text>
</svg>