<svg xmlns="http://www.w3.org/2000/svg" viewBox="0 0 280 240" width="280" height="240">
<defs>
  <marker id="arrow" viewBox="0 0 10 10" refX="9" refY="5" markerWidth="7" markerHeight="7" orient="auto-start-reverse">
    <path d="M0,0 L10,5 L0,10 z" fill="#1d1d1f"/>
  </marker>
</defs>
<line x1="151" y1="117" x2="151" y2="123" stroke="#1d1d1f" stroke-width="1.4" fill="none"/>
<line x1="129" y1="117" x2="129" y2="123" stroke="#1d1d1f" stroke-width="1.4" fill="none"/>
<line x1="137" y1="131" x2="143" y2="131" stroke="#1d1d1f" stroke-width="1.4" fill="none"/>
<line x1="137" y1="109" x2="143" y2="109" stroke="#1d1d1f" stroke-width="1.4" fill="none"/>
<line x1="162" y1="117" x2="162" y2="123" stroke="#1d1d1f" stroke-width="1.4" fill="none"/>
<line x1="118" y1="117" x2="118" y2="123" stroke="#1d1d1f" stroke-width="1.4" fill="none"/>
<line x1="137" y1="142" x2="143" y2="142" stroke="#1d1d1f" stroke-width="1.4" fill="none"/>
<line x1="137" y1="98" x2="143" y2="98" stroke="#1d1d1f" stroke-width="1.4" fill="none"/>
<line x1="173" y1="117" x2="173" y2="123" stroke="#1d1d1f" stroke-width="1.4" fill="none"/>
<line x1="107" y1="117" x2="107" y2="123" stroke="#1d1d1f" stroke-width="1.4" fill="none"/>
<line x1="137" y1="153" x2="143" y2="153" stroke="#1d1d1f" stroke-width="1.4" fill="none"/>
<line x1="137" y1="87" x2="143" y2="87" stroke="#1d1d1f" stroke-width="1.4" fill="none"/>
<line x1="184" y1="117" x2="184" y2="123" stroke="#1d1d1f" stroke-width="1.4" fill="none"/>
<line x1="96" y1="117" x2="96" y2="123" stroke="#1d1d1f" stroke-width="1.4" fill="none"/>
<line x1="137" y1="164" x2="143" y2="164" stroke="#1d1d1f" stroke-width="1.4" fill="none"/>
<line x1="137" y1="76" x2="143" y2="76" stroke="#1d1d1f" stroke-width="1.4" fill="none"/>
<line x1="195" y1="117" x2="195" y2="123" stroke="#1d1d1f" stroke-width="1.4" fill="none"/>
<line x1="85" y1="117" x2="85" y2="123" stroke="#1d1d1f" stroke-width="1.4" fill="none"/>
<line x1="137" y1="175" x2="143" y2="175" stroke="#1d1d1f" stroke-width="1.4" fill="none"/>
<line x1="137" y1="65" x2="143" y2="65" stroke="#1d1d1f" stroke-width="1.4" fill="none"/>
<line x1="206" y1="117" x2="206" y2="123" stroke="#1d1d1f" stroke-width="1.4" fill="none"/>
<line x1="74" y1="117" x2="74" y2="123" stroke="#1d1d1f" stroke-width="1.4" fill="none"/>
<line x1="137" y1="186" x2="143" y2="186" stroke="#1d1d1f" stroke-width="1.4" fill="none"/>
<line x1="137" y1="54" x2="143" y2="54" stroke="#1d1d1f" stroke-width="1.4" fill="none"/>
<line x1="217" y1="117" x2="217" y2="123" stroke="#1d1d1f" stroke-width="1.4" fill="none"/>
<line x1="63" y1="117" x2="63" y2="123" stroke="#1d1d1f" stroke-width="1.4" fill="none"/>
<line x1="137" y1="197" x2="143" y2="197" stroke="#1d1d1f" stroke-width="1.4" fill="none"/>
<line x1="137" y1="43" x2="143" y2="43" stroke="#1d1d1f" stroke-width="1.4" fill="none"/>
<line x1="40" y1="120" x2="240" y2="120" stroke="#1d1d1f" stroke-width="1.4" fill="none" marker-start="url(#arrow)" marker-end="url(#arrow)"/>
<line x1="140" y1="20" x2="140" y2="220" stroke="#1d1d1f" stroke-width="1.4" fill="none" marker-start="url(#arrow)" marker-end="url(#arrow)"/>
<text x="249" y="125" font-family="Times, Georgia, serif" font-style="italic" font-size="14" text-anchor="middle">x</text>
<text x="140" y="13" font-family="Times, Georgia, serif" font-style="italic" font-size="14" text-anchor="middle">y</text>
<line x1="80" y1="30" x2="230" y2="180" stroke="#1d1d1f" stroke-width="1.4" fill="none"/>
<line x1="70" y1="40" x2="230" y2="200" stroke="#1d1d1f" stroke-width="1.4" fill="none"/>
<text x="218" y="198" font-family="Times, Georgia, serif" font-style="italic" font-size="14" text-anchor="middle">ℓ</text>
</svg>