<svg xmlns="http://www.w3.org/2000/svg" viewBox="0 0 180 160" width="180" height="160">
<defs>
  <marker id="arrow" viewBox="0 0 10 10" refX="9" refY="5" markerWidth="7" markerHeight="7" orient="auto-start-reverse">
    <path d="M0,0 L10,5 L0,10 z" fill="#1d1d1f"/>
  </marker>
</defs>
<line x1="75" y1="30" x2="30" y2="130" stroke="#1d1d1f" stroke-width="1.4" fill="none"/>
<line x1="30" y1="130" x2="170" y2="130" stroke="#1d1d1f" stroke-width="1.4" fill="none"/>
<line x1="75" y1="30" x2="170" y2="130" stroke="#1d1d1f" stroke-width="1.4" fill="none"/>
<line x1="30" y1="130" x2="54.75" y2="75.0" stroke="#1d1d1f" stroke-width="1.4" fill="none"/>
<line x1="54.75" y1="75.0" x2="131.75" y2="75.0" stroke="#1d1d1f" stroke-width="1.4" fill="none"/>
<line x1="131.75" y1="75.0" x2="107.0" y2="130.0" stroke="#1d1d1f" stroke-width="1.4" fill="none"/>
<line x1="107.0" y1="130.0" x2="30" y2="130" stroke="#1d1d1f" stroke-width="1.4" fill="none"/>
<circle cx="75" cy="30" r="2.5" fill="#1d1d1f"/>
<text x="75" y="22" font-family="Times, Georgia, serif" font-style="italic" font-size="14" text-anchor="middle">A</text>
<circle cx="54.75" cy="75.0" r="2.5" fill="#1d1d1f"/>
<text x="44.75" y="67.0" font-family="Times, Georgia, serif" font-style="italic" font-size="14" text-anchor="end">F</text>
<circle cx="131.75" cy="75.0" r="2.5" fill="#1d1d1f"/>
<text x="141.75" y="67.0" font-family="Times, Georgia, serif" font-style="italic" font-size="14" text-anchor="start">E</text>
<circle cx="30" cy="130" r="2.5" fill="#1d1d1f"/>
<text x="20" y="148" font-family="Times, Georgia, serif" font-style="italic" font-size="14" text-anchor="end">B</text>
<circle cx="107.0" cy="130.0" r="2.5" fill="#1d1d1f"/>
<text x="107.0" y="146.0" font-family="Times, Georgia, serif" font-style="italic" font-size="14" text-anchor="middle">D</text>
<circle cx="170" cy="130" r="2.5" fill="#1d1d1f"/>
<text x="180" y="148" font-family="Times, Georgia, serif" font-style="italic" font-size="14" text-anchor="start">C</text>
</svg>