<svg xmlns="http://www.w3.org/2000/svg" viewBox="0 0 260 160" width="260" height="160">
<defs>
  <marker id="arrow" viewBox="0 0 10 10" refX="9" refY="5" markerWidth="7" markerHeight="7" orient="auto-start-reverse">
    <path d="M0,0 L10,5 L0,10 z" fill="#1d1d1f"/>
  </marker>
</defs>
<line x1="60" y1="75" x2="40" y2="115" stroke="#1d1d1f" stroke-width="1.4" fill="none"/>
<line x1="40" y1="115" x2="105" y2="100" stroke="#1d1d1f" stroke-width="1.4" fill="none"/>
<line x1="60" y1="75" x2="105" y2="100" stroke="#1d1d1f" stroke-width="1.4" fill="none"/>
<line x1="159.2864268216975" y1="-27.92042943179615" x2="115.78889690320759" y2="-17.52981390671414" stroke="#1d1d1f" stroke-width="1.4" fill="none"/>
<line x1="115.78889690320759" y1="-17.52981390671414" x2="169.06075817961732" y2="22.621260750721348" stroke="#1d1d1f" stroke-width="1.4" fill="none"/>
<line x1="159.2864268216975" y1="-27.92042943179615" x2="169.06075817961732" y2="22.621260750721348" stroke="#1d1d1f" stroke-width="1.4" fill="none"/>
<line x1="220" y1="130" x2="60" y2="75" stroke="#1d1d1f" stroke-width="1.2" stroke-dasharray="4,3" fill="none"/>
<line x1="220" y1="130" x2="159.2864268216975" y2="-27.92042943179615" stroke="#1d1d1f" stroke-width="1.2" stroke-dasharray="4,3" fill="none"/>
<text x="195" y="127" font-family="Times, Georgia, serif" font-style="italic" font-size="11" text-anchor="middle">θ</text>
<circle cx="60" cy="75" r="2.5" fill="#1d1d1f"/>
<text x="48" y="79" font-family="Times, Georgia, serif" font-style="italic" font-size="14" text-anchor="end">A</text>
<circle cx="40" cy="115" r="2.5" fill="#1d1d1f"/>
<text x="30" y="133" font-family="Times, Georgia, serif" font-style="italic" font-size="14" text-anchor="end">B</text>
<circle cx="105" cy="100" r="2.5" fill="#1d1d1f"/>
<text x="105" y="116" font-family="Times, Georgia, serif" font-style="italic" font-size="14" text-anchor="middle">C</text>
<circle cx="159.2864268216975" cy="-27.92042943179615" r="2.5" fill="#1d1d1f"/>
<text x="159.2864268216975" y="-35.92042943179615" font-family="Times, Georgia, serif" font-style="italic" font-size="14" text-anchor="middle">A'</text>
<circle cx="115.78889690320759" cy="-17.52981390671414" r="2.5" fill="#1d1d1f"/>
<text x="103.78889690320759" y="-13.52981390671414" font-family="Times, Georgia, serif" font-style="italic" font-size="14" text-anchor="end">B'</text>
<circle cx="169.06075817961732" cy="22.621260750721348" r="2.5" fill="#1d1d1f"/>
<text x="181.06075817961732" y="26.621260750721348" font-family="Times, Georgia, serif" font-style="italic" font-size="14" text-anchor="start">C'</text>
<circle cx="220" cy="130" r="2.5" fill="#1d1d1f"/>
<text x="232" y="134" font-family="Times, Georgia, serif" font-style="italic" font-size="14" text-anchor="start">O</text>
</svg>