<svg xmlns="http://www.w3.org/2000/svg" viewBox="0 0 220 180" width="220" height="180">
<defs>
  <marker id="arrow" viewBox="0 0 10 10" refX="9" refY="5" markerWidth="7" markerHeight="7" orient="auto-start-reverse">
    <path d="M0,0 L10,5 L0,10 z" fill="#1d1d1f"/>
  </marker>
</defs>
<line x1="30" y1="160" x2="200" y2="160" stroke="#1d1d1f" stroke-width="1.4" fill="none"/>
<line x1="30" y1="160" x2="110" y2="20" stroke="#1d1d1f" stroke-width="1.4" fill="none"/>
<line x1="200" y1="160" x2="110" y2="20" stroke="#1d1d1f" stroke-width="1.4" fill="none"/>
<line x1="63.811978464829934" y1="100.82903768654762" x2="161.96152422706632" y2="100.82903768654762" stroke="#1d1d1f" stroke-width="1.4" fill="none"/>
<line x1="44.680273525781914" y1="134.30952132988165" x2="183.48469228349535" y2="134.30952132988165" stroke="#1d1d1f" stroke-width="1.4" fill="none"/>
<circle cx="110" cy="20" r="2.5" fill="#1d1d1f"/>
<text x="110" y="12" font-family="Times, Georgia, serif" font-style="italic" font-size="14" text-anchor="middle">C</text>
<circle cx="63.811978464829934" cy="100.82903768654762" r="2.5" fill="#1d1d1f"/>
<text x="51.811978464829934" y="104.82903768654762" font-family="Times, Georgia, serif" font-style="italic" font-size="14" text-anchor="end">D</text>
<circle cx="161.96152422706632" cy="100.82903768654762" r="2.5" fill="#1d1d1f"/>
<text x="173.96152422706632" y="104.82903768654762" font-family="Times, Georgia, serif" font-style="italic" font-size="14" text-anchor="start">E</text>
<circle cx="44.680273525781914" cy="134.30952132988165" r="2.5" fill="#1d1d1f"/>
<text x="32.680273525781914" y="138.30952132988165" font-family="Times, Georgia, serif" font-style="italic" font-size="14" text-anchor="end">F</text>
<circle cx="183.48469228349535" cy="134.30952132988165" r="2.5" fill="#1d1d1f"/>
<text x="195.48469228349535" y="138.30952132988165" font-family="Times, Georgia, serif" font-style="italic" font-size="14" text-anchor="start">G</text>
<circle cx="30" cy="160" r="2.5" fill="#1d1d1f"/>
<text x="30" y="176" font-family="Times, Georgia, serif" font-style="italic" font-size="14" text-anchor="middle">A</text>
<circle cx="200" cy="160" r="2.5" fill="#1d1d1f"/>
<text x="200" y="176" font-family="Times, Georgia, serif" font-style="italic" font-size="14" text-anchor="middle">B</text>
</svg>