<svg xmlns="http://www.w3.org/2000/svg" viewBox="0 0 240 180" width="240" height="180">
<defs>
  <marker id="arrow" viewBox="0 0 10 10" refX="9" refY="5" markerWidth="7" markerHeight="7" orient="auto-start-reverse">
    <path d="M0,0 L10,5 L0,10 z" fill="#1d1d1f"/>
  </marker>
</defs>
<line x1="120" y1="25" x2="220" y2="90" stroke="#1d1d1f" stroke-width="1.4" fill="none"/>
<line x1="220" y1="90" x2="120" y2="155" stroke="#1d1d1f" stroke-width="1.4" fill="none"/>
<line x1="120" y1="155" x2="20" y2="90" stroke="#1d1d1f" stroke-width="1.4" fill="none"/>
<line x1="20" y1="90" x2="120" y2="25" stroke="#1d1d1f" stroke-width="1.4" fill="none"/>
<line x1="120" y1="25" x2="120" y2="155" stroke="#1d1d1f" stroke-width="1.4" fill="none"/>
<line x1="220" y1="90" x2="20" y2="90" stroke="#1d1d1f" stroke-width="1.4" fill="none"/>
<path d="M 126.00 90.00 L 126.00 84.00 L 120.00 84.00" stroke="#1d1d1f" stroke-width="1.4" fill="none"/>
<circle cx="120" cy="25" r="2.5" fill="#1d1d1f"/>
<text x="120" y="17" font-family="Times, Georgia, serif" font-style="italic" font-size="14" text-anchor="middle">A</text>
<circle cx="220" cy="90" r="2.5" fill="#1d1d1f"/>
<text x="232" y="94" font-family="Times, Georgia, serif" font-style="italic" font-size="14" text-anchor="start">B</text>
<circle cx="120" cy="155" r="2.5" fill="#1d1d1f"/>
<text x="120" y="171" font-family="Times, Georgia, serif" font-style="italic" font-size="14" text-anchor="middle">C</text>
<circle cx="20" cy="90" r="2.5" fill="#1d1d1f"/>
<text x="8" y="94" font-family="Times, Georgia, serif" font-style="italic" font-size="14" text-anchor="end">D</text>
<circle cx="120" cy="90" r="2.5" fill="#1d1d1f"/>
<text x="130" y="82" font-family="Times, Georgia, serif" font-style="italic" font-size="14" text-anchor="start">E</text>
</svg>